<?xml version="1.0" encoding="UTF-8"?>
<svg version="1.1" xmlns="http://www.w3.org/2000/svg" width="512" height="512">
<path d="M0 0 C147.84 0 295.68 0 448 0 C448.103125 53.41875 448.20625 106.8375 448.3125 161.875 C448.38078003 187.18936768 448.38078003 187.18936768 448.45043945 213.01513672 C448.47302246 233.59985352 448.47302246 233.59985352 448.47721863 243.23196411 C448.48188283 249.96911328 448.50022991 256.70605533 448.52787781 263.44314575 C448.55972235 271.21434977 448.57417561 278.98535502 448.56722475 286.75662477 C448.56421472 290.73138054 448.56896106 294.70569214 448.59607565 298.68036628 C448.62047062 302.27829424 448.62157763 305.87546543 448.60450554 309.47342873 C448.60139672 311.38294701 448.62288939 313.29245709 448.64540386 315.20184517 C448.57981151 322.79517029 447.4452715 328.70979886 443 335 C436.53805435 341.29780206 429.79873041 343.24813898 420.78912449 343.25447559 C419.74731959 343.25928531 419.74731959 343.25928531 418.68446812 343.26419219 C416.36382488 343.27247466 414.04344091 343.26657415 411.72279358 343.26069641 C410.03953346 343.26371789 408.35627472 343.26760736 406.6730184 343.27228898 C402.05241296 343.28257806 397.43188504 343.28038484 392.81127322 343.27610838 C387.82618472 343.27364284 382.84111497 343.28265316 377.85603333 343.29014587 C368.09188613 343.30289937 358.32776642 343.30468578 348.56361229 343.30234561 C340.62810797 343.30056313 332.69261201 343.3023106 324.75710869 343.30657005 C323.06347493 343.30746284 323.06347493 343.30746284 321.33562635 343.30837366 C319.04194693 343.3095854 316.74826752 343.31079953 314.45458811 343.31201603 C292.94166643 343.32289395 271.42876043 343.32072781 249.91583788 343.31463119 C230.23109461 343.30946103 210.54640082 343.32071964 190.86166734 343.33972941 C170.65226064 343.35909636 150.44287736 343.36736586 130.23346132 343.36360615 C118.88623104 343.36169247 107.53904287 343.36419798 96.19182014 343.37832069 C86.53257233 343.39022085 76.87339255 343.39165467 67.21414382 343.37953053 C62.28558633 343.37363244 57.3571534 343.37256813 52.42860413 343.38453293 C47.91643699 343.39535967 43.40449889 343.39232667 38.89234262 343.37827124 C37.26052273 343.37561547 35.62868507 343.37801839 33.99688257 343.38600711 C23.75695095 343.43265639 15.01201043 343.10496282 6.59262198 336.6109246 C0.67667134 330.62698708 -0.57540705 323.30505514 -0.64540386 315.20184517 C-0.63084054 313.9667716 -0.61627722 312.73169804 -0.60127258 311.459198 C-0.60346389 310.11324049 -0.60785614 308.76728509 -0.61424255 307.42134094 C-0.62539451 303.73967624 -0.60547874 300.05874621 -0.58036365 296.37717471 C-0.55844828 292.33982324 -0.56584207 288.30250282 -0.56945324 284.26510811 C-0.572106 276.43644725 -0.54907382 268.60807435 -0.5169466 260.77948738 C-0.48088261 251.71958134 -0.47696939 242.65984713 -0.47302246 233.59985352 C-0.4467932 209.69152352 -0.37698735 185.78325741 -0.3125 161.875 C-0.209375 108.45625 -0.10625 55.0375 0 0 Z M98 33 C96.90429688 33.51304687 95.80859375 34.02609375 94.6796875 34.5546875 C69.18545254 47.39395282 50.556183 70.31291045 41.25 97.1015625 C38.47974755 105.49940863 36.48884522 114.15634564 36 123 C35.94714844 123.90363281 35.89429688 124.80726563 35.83984375 125.73828125 C34.97447251 155.34902764 45.73384597 184.286991 65.73046875 206.00390625 C71.35049197 211.83002341 77.17144467 216.67049863 84 221 C84.73089844 221.49886719 85.46179688 221.99773437 86.21484375 222.51171875 C109.14857414 237.44804572 139.42266734 241.58583463 166.01513672 236.40795898 C193.8392184 230.4161559 218.91898164 215.07247797 234.5324707 190.92578125 C250.05848088 165.67005283 256.07395069 135.06282532 249.49169922 106.03027344 C242.86974429 78.68758369 225.85454581 54.35067516 202.03515625 39.21289062 C170.05717807 20.15499768 131.88372199 17.0953958 98 33 Z M304.51051331 35.8106842 C302.3203384 38.98509154 302.52134276 41.23912168 303 45 C304.83115207 47.61593153 305.90968366 47.96989455 309 49 C311.63516055 49.11150259 314.24458131 49.1676453 316.88037109 49.17700195 C317.68232407 49.18357315 318.48427704 49.19014435 319.31053162 49.19691467 C321.96483453 49.21662841 324.61908097 49.22830477 327.2734375 49.23828125 C328.63350355 49.24439454 328.63350355 49.24439454 330.02104568 49.25063133 C334.81839012 49.27148193 339.61570601 49.28578911 344.41308594 49.29516602 C349.36866308 49.30624004 354.32379239 49.34065418 359.27921104 49.38033772 C363.08992349 49.4064725 366.90052859 49.41485496 370.71132278 49.41844749 C372.53817399 49.42332006 374.3650202 49.4349531 376.19178391 49.45348549 C378.74849835 49.47781494 381.30404526 49.47692377 383.86083984 49.4699707 C384.61426163 49.48278076 385.36768341 49.49559082 386.14393616 49.50878906 C389.77165597 49.47284989 391.83876728 49.10128014 394.93838501 47.15422058 C397.18474036 45.0853311 397.18474036 45.0853311 398.125 42.0625 C398.2833975 38.85769696 398.2833975 38.85769696 396.0171051 36.34803772 C392.19954056 33.37704889 389.24474864 33.29928281 384.60131836 33.36889648 C383.76820633 33.36174118 382.9350943 33.35458588 382.07673645 33.34721375 C379.33054307 33.33034287 376.58598575 33.34971744 373.83984375 33.37109375 C371.92842982 33.37026498 370.01701596 33.36780529 368.10560608 33.36378479 C364.1033071 33.360928 360.10156813 33.37561777 356.09936523 33.40307617 C350.96875542 33.43718182 345.83914539 33.43113196 340.70848751 33.4124136 C336.76306317 33.40184728 332.81787164 33.41077769 328.87246895 33.42579842 C326.98063409 33.43098184 325.08877494 33.43049648 323.19694328 33.42425346 C320.55385886 33.41880475 317.91220817 33.43916354 315.26928711 33.46655273 C314.09639633 33.45676392 314.09639633 33.45676392 312.89981079 33.44677734 C309.40851438 33.50831697 307.36926533 33.73142138 304.51051331 35.8106842 Z M304 72 C302.57958179 74.84083641 302.68547728 76.85477278 303 80 C304.44424121 82.32621567 304.44424121 82.32621567 307 84 C309.88334852 84.39974377 312.38624227 84.55750884 315.26928711 84.53344727 C316.10064682 84.54206284 316.93200653 84.55067841 317.78855896 84.55955505 C320.53513781 84.58224699 323.28069893 84.57547014 326.02734375 84.56640625 C327.93779301 84.57164067 329.84823967 84.57791649 331.75868225 84.58518982 C335.76266642 84.59560017 339.76629535 84.59102384 343.77026367 84.57641602 C348.89978067 84.55923324 354.02817702 84.58271378 359.15756893 84.61790562 C363.10302647 84.63987422 367.04821569 84.63843935 370.99371529 84.6301403 C372.88474315 84.62932037 374.77579064 84.63619178 376.6667614 84.65091133 C379.31231255 84.66834622 381.95584805 84.65382452 384.60131836 84.63110352 C385.38122131 84.64279572 386.16112427 84.65448792 386.96466064 84.66653442 C390.97346464 84.5965378 392.81523907 84.14378871 396.0171051 81.65196228 C398.2833975 79.14230304 398.2833975 79.14230304 398.125 75.9375 C396.69775726 72.21081064 395.37173579 71.12170207 392 69 C389.16427014 68.61779364 386.72239181 68.46182655 383.89257812 68.49829102 C382.68921059 68.49018654 382.68921059 68.49018654 381.46153259 68.48191833 C378.81772625 68.46944211 376.17501127 68.48591416 373.53125 68.50390625 C371.68949324 68.50375124 369.84773614 68.50226185 368.00598145 68.49949646 C364.14918569 68.49811296 360.29276203 68.51066221 356.43603516 68.53344727 C351.49622084 68.56183174 346.55702467 68.55909391 341.61716461 68.54635715 C337.81498957 68.53939697 334.01295702 68.54719314 330.21080017 68.55961418 C328.38956753 68.56412538 326.56831958 68.56446838 324.74708557 68.56054878 C322.20021291 68.55763323 319.6541874 68.57415955 317.10742188 68.59594727 C316.35714218 68.59144562 315.60686249 68.58694397 314.83384705 68.58230591 C310.3946323 68.64529643 307.52836604 69.25433894 304 72 Z M303 109 C302.16666667 112.5 302.16666667 112.5 303 116 C305.87662586 119.11518751 307.5654823 119.94270815 311.80128479 120.50120544 C313.30300993 120.52182286 314.8051363 120.52055113 316.30688477 120.50170898 C317.13024323 120.50711197 317.95360168 120.51251495 318.8019104 120.51808167 C321.51544464 120.53055899 324.22791592 120.51408639 326.94140625 120.49609375 C328.83039913 120.49624875 330.71939232 120.49773784 332.60838318 120.50050354 C336.56352835 120.50188703 340.51831067 120.48933657 344.47338867 120.46655273 C349.54333284 120.43814883 354.61267507 120.44091137 359.68266392 120.45364285 C363.58173262 120.4605966 367.48066213 120.45281453 371.37971306 120.44038582 C373.24922082 120.43586974 375.11874352 120.43553588 376.98825264 120.43945122 C379.59998358 120.44236096 382.21088379 120.42586884 384.82250977 120.40405273 C385.59508621 120.40855438 386.36766266 120.41305603 387.16365051 120.41769409 C390.34857985 120.37348019 392.63416349 120.2007165 395.45249939 118.6544342 C397.75637161 116.19136247 397.93338771 114.33061468 398 111 C396.26655125 107.27156036 396.26655125 107.27156036 393 105 C390.34161854 104.88606278 387.70882696 104.83216811 385.04956055 104.82299805 C384.22824646 104.81642685 383.40693237 104.80985565 382.56072998 104.80308533 C379.83605869 104.783335 377.11144256 104.771686 374.38671875 104.76171875 C372.9921794 104.75560546 372.9921794 104.75560546 371.56946754 104.74936867 C366.64893439 104.72850069 361.72842918 104.71420204 356.80786133 104.70483398 C351.72334488 104.693767 346.63926577 104.65936589 341.55490398 104.61966228 C337.64725425 104.59352724 333.73970921 104.58514493 329.83197975 104.58155251 C327.95768085 104.57667861 326.08338687 104.56504183 324.2091732 104.54651451 C321.58530319 104.52218863 318.9625711 104.52307588 316.33862305 104.5300293 C315.56492874 104.51721924 314.79123444 104.50440918 313.99409485 104.49121094 C309.06439575 104.5388077 306.36881941 105.3449029 303 109 Z M302 210 C301.2779083 213.10316107 301.31616726 216.12564305 301.35302734 219.30078125 C301.34426575 220.22982269 301.33550415 221.15886414 301.32647705 222.11605835 C301.30449988 225.18201629 301.31903016 228.24652782 301.3359375 231.3125 C301.33256889 233.44572221 301.3277159 235.57894256 301.32144165 237.7121582 C301.31407258 242.18101287 301.32477733 246.64936755 301.34814453 251.11816406 C301.37663187 256.84513649 301.36022815 262.57093737 301.33028221 268.29786682 C301.31221045 272.70227885 301.31796681 277.10641333 301.33092117 281.51083374 C301.3342555 283.62234638 301.3301672 285.73388426 301.31852341 287.84536743 C301.30581708 290.79732968 301.32518933 293.74739754 301.35302734 296.69921875 C301.34290619 297.57105804 301.33278503 298.44289734 301.32235718 299.34115601 C301.39801902 303.67403939 301.60824351 305.48135154 304.29763794 309.04185486 C307.93177429 311.67516834 311.08037983 311.70360076 315.40625 311.62890625 C316.60973083 311.63252419 316.60973083 311.63252419 317.83752441 311.63621521 C319.52861489 311.63523862 321.21973807 311.62188958 322.91064453 311.59692383 C325.49232073 311.56260209 328.0705734 311.57627468 330.65234375 311.59570312 C332.29949367 311.58880429 333.94663479 311.57913155 335.59375 311.56640625 C336.7455072 311.57384605 336.7455072 311.57384605 337.92053223 311.58143616 C341.28365257 311.50789888 343.72332621 311.14811332 346.70236206 309.55332947 C350.10118069 305.77627494 349.70262398 302.53834 349.64697266 297.61328125 C349.65573425 296.6632724 349.66449585 295.71326355 349.67352295 294.73446655 C349.69553445 291.5933468 349.68095752 288.45363413 349.6640625 285.3125 C349.66743012 283.13061248 349.67228228 280.94872679 349.67855835 278.7668457 C349.68593208 274.193666 349.67520763 269.62097453 349.65185547 265.04785156 C349.62336793 259.18287801 349.63976915 253.31904839 349.66971779 247.45411682 C349.68777693 242.94852056 349.68203897 238.44319596 349.66907883 233.93759155 C349.66574101 231.77501287 349.66984502 229.6124096 349.68147659 227.44985962 C349.6941621 224.42814718 349.67483957 221.40829262 349.64697266 218.38671875 C349.65709381 217.49101166 349.66721497 216.59530457 349.67764282 215.67245483 C349.60300981 210.56348459 349.60300981 210.56348459 346.70236206 206.44667053 C343.02578801 204.47846967 339.66614892 204.40728799 335.59375 204.43359375 C334.79142944 204.42739517 333.98910889 204.42119659 333.16247559 204.41481018 C331.47144785 204.40772757 329.78035016 204.41085884 328.08935547 204.42358398 C325.50748051 204.4374598 322.9292259 204.40335052 320.34765625 204.36523438 C318.70051995 204.36428316 317.05337913 204.36614211 315.40625 204.37109375 C314.63841187 204.35783554 313.87057373 204.34457733 313.07946777 204.33091736 C307.54539819 204.42668394 305.30992442 205.61797378 302 210 Z M367 210 C366.27652082 213.13862387 366.31622318 216.19841008 366.35302734 219.40844727 C366.34426575 220.34884857 366.33550415 221.28924988 366.32647705 222.25814819 C366.30450033 225.36137251 366.3190289 228.46316789 366.3359375 231.56640625 C366.33256917 233.72444431 366.3277164 235.88248052 366.32144165 238.04051208 C366.31407288 242.56063928 366.32477747 247.0802721 366.34814453 251.6003418 C366.3766489 257.39690977 366.36021712 263.19232113 366.33028221 268.98884678 C366.31222424 273.44382969 366.31796018 277.89853784 366.33092117 282.35352898 C366.33425843 284.4909879 366.33015693 286.6284717 366.31852341 288.76590157 C366.3058379 291.75159029 366.32515945 294.73539879 366.35302734 297.72094727 C366.34290619 298.60573257 366.33278503 299.49051788 366.32235718 300.40211487 C366.40289553 305.46899094 366.40289553 305.46899094 369.29763794 309.54759216 C372.97712609 311.52516486 376.32953037 311.57423938 380.40625 311.53125 C381.60973083 311.53699036 381.60973083 311.53699036 382.83752441 311.54284668 C384.52857727 311.54556052 386.21967248 311.53823624 387.91064453 311.52148438 C390.49216716 311.50006499 393.0709072 311.52130161 395.65234375 311.546875 C397.29948528 311.54423163 398.94662509 311.53910645 400.59375 311.53125 C401.36158813 311.53934692 402.12942627 311.54744385 402.92053223 311.55578613 C406.29157706 311.49709894 408.71852588 311.1512807 411.70236206 309.54759216 C415.08622558 305.79560668 414.70299192 302.61811779 414.64697266 297.72094727 C414.65573425 296.78229828 414.66449585 295.84364929 414.67352295 294.8765564 C414.69553531 291.7727032 414.68095612 288.67027402 414.6640625 285.56640625 C414.66743038 283.40933458 414.67228276 281.25226476 414.67855835 279.09519958 C414.68593243 274.57329245 414.67520759 270.05187905 414.65185547 265.5300293 C414.62338495 259.73465139 414.63975808 253.94043205 414.66971779 248.14509678 C414.68779058 243.69007142 414.68203241 239.23532044 414.66907883 234.78028679 C414.6657439 232.64365438 414.6698349 230.50699705 414.68147659 228.37039375 C414.69418266 225.38240791 414.67481003 222.39629377 414.64697266 219.40844727 C414.65709381 218.52568619 414.66721497 217.64292511 414.67764282 216.7334137 C414.60245388 212.37503279 414.40261295 210.53402672 411.70236206 206.95240784 C408.07136503 204.32907799 404.91458168 204.27898304 400.59375 204.3359375 C399.79142944 204.33115387 398.98910889 204.32637024 398.16247559 204.32144165 C396.47141552 204.31804933 394.78028929 204.32720517 393.08935547 204.34814453 C390.50729556 204.37492433 387.92958166 204.34837904 385.34765625 204.31640625 C383.70051128 204.31971047 382.05336901 204.32611698 380.40625 204.3359375 C379.63841187 204.32581635 378.87057373 204.31569519 378.07946777 204.30526733 C372.5517128 204.42555957 370.303411 205.61834817 367 210 Z M238 248 C236.71990982 250.56018036 236.84492877 252.4216528 236.80712891 255.28833008 C236.79106598 256.39320267 236.77500305 257.49807526 236.75845337 258.63642883 C236.71407965 263.69161424 236.67294199 268.74666745 236.64990234 273.80200195 C236.63656713 276.47091561 236.60604198 279.13802187 236.56787109 281.80688477 C236.51318649 285.64883513 236.49124013 289.48974444 236.4765625 293.33203125 C236.45389313 294.52488235 236.43122375 295.71773346 236.40786743 296.94673157 C236.40864726 303.43324346 236.40864726 303.43324346 238.99145508 309.25244141 C243.01705583 311.59077219 246.07777817 311.70553387 250.66015625 311.62890625 C251.48704453 311.63131821 252.3139328 311.63373016 253.1658783 311.63621521 C254.9082419 311.63523855 256.65063723 311.62188811 258.39282227 311.59692383 C261.05787526 311.56255963 263.71962041 311.57628539 266.38476562 311.59570312 C268.08074326 311.58880569 269.77671235 311.57913423 271.47265625 311.56640625 C272.66496605 311.57384605 272.66496605 311.57384605 273.88136292 311.58143616 C277.44810426 311.50555215 279.57471166 311.31811518 282.47045898 309.15209961 C284.86468871 305.78336298 285.12794912 303.07378457 285.14526367 299.05712891 C285.15164352 298.05243561 285.15802338 297.04774231 285.16459656 296.01260376 C285.16570938 294.92821014 285.1668222 293.84381653 285.16796875 292.7265625 C285.17129715 291.61066742 285.17462555 290.49477234 285.17805481 289.34506226 C285.18312048 286.98297539 285.18546325 284.62088136 285.18530273 282.25878906 C285.18748708 278.6463642 285.20564098 275.03424572 285.22460938 271.421875 C285.22754379 269.12760521 285.22952826 266.83333397 285.23046875 264.5390625 C285.23765427 263.45871735 285.24483978 262.37837219 285.25224304 261.26528931 C285.2476281 259.74879288 285.2476281 259.74879288 285.24291992 258.20166016 C285.24434494 257.31580231 285.24576996 256.42994446 285.24723816 255.51724243 C284.88420465 251.82103563 283.88228597 248.97393304 281.38061523 246.21240234 C277.95459453 244.46759475 274.66808013 244.57118048 270.91015625 244.6015625 C270.12861679 244.59869232 269.34707733 244.59582214 268.54185486 244.59286499 C266.89190953 244.59082714 265.24193988 244.59633751 263.59204102 244.60888672 C261.07447896 244.62492369 258.55852742 244.60904073 256.04101562 244.58984375 C254.43489231 244.59182666 252.82876999 244.59567131 251.22265625 244.6015625 C250.09900414 244.59245346 250.09900414 244.59245346 248.95265198 244.5831604 C244.47022191 244.6430763 241.5595671 245.21971126 238 248 Z " fill="#2C89FF" transform="translate(32,121)"/>
<path d="M0 0 C0.6945366 -0.00320648 1.3890732 -0.00641296 2.10465637 -0.0097166 C4.42529961 -0.01799907 6.74568358 -0.01209856 9.06633091 -0.00622082 C10.74959103 -0.0092423 12.43284977 -0.01313176 14.11610609 -0.01781338 C18.73671153 -0.02810246 23.35723945 -0.02590924 27.97785127 -0.02163279 C32.96293977 -0.01916725 37.94800952 -0.02817757 42.93309116 -0.03567028 C52.69723836 -0.04842378 62.46135807 -0.05021018 72.2255122 -0.04787002 C80.16101652 -0.04608753 88.09651248 -0.047835 96.0320158 -0.05209446 C97.16110497 -0.05268965 98.29019415 -0.05328484 99.45349814 -0.05389806 C101.74717756 -0.0551098 104.04085697 -0.05632394 106.33453638 -0.05754044 C127.84745805 -0.06841835 149.36036405 -0.06625221 170.87328661 -0.06015559 C190.55802988 -0.05498544 210.24272367 -0.06624404 229.92745715 -0.08525381 C250.13686385 -0.10462077 270.34624713 -0.11289027 290.55566317 -0.10913056 C301.90289345 -0.10721688 313.25008162 -0.10972239 324.59730434 -0.1238451 C334.25655216 -0.13574525 343.91573194 -0.13717908 353.57498067 -0.12505493 C358.50353816 -0.11915685 363.43197109 -0.11809253 368.36052036 -0.13005733 C372.87268749 -0.14088408 377.3846256 -0.13785107 381.89678187 -0.12379565 C383.52860176 -0.12113988 385.16043942 -0.1235428 386.79224192 -0.13153151 C398.10866525 -0.18308489 407.01681067 0.47525391 415.78912449 8.25447559 C420.78912449 18.25447559 420.78912449 18.25447559 420.78912449 58.25447559 C272.94912449 58.25447559 125.10912449 58.25447559 -27.21087551 58.25447559 C-27.21087551 17.25447559 -27.21087551 17.25447559 -21.21087551 7.25447559 C-14.78714955 1.64831476 -8.56157169 0.0060215 0 0 Z M135.03912449 22.81697559 C132.31354877 25.76968263 131.70729762 27.24495896 131.78912449 31.25447559 C133.19790545 34.2446399 133.19790545 34.2446399 135.78912449 36.25447559 C139.17211858 36.81830794 141.0225206 36.62741802 144.10162449 35.12947559 C146.47064672 32.49722867 146.78912449 30.77844997 146.78912449 27.25447559 C144.98304726 24.1285727 143.66771962 22.63745296 140.35162449 21.19197559 C137.63357285 21.05628314 137.63357285 21.05628314 135.03912449 22.81697559 Z M12.78912449 24.25447559 C10.47374853 27.07155754 10.47374853 27.07155754 10.97662449 30.25447559 C11.93096728 33.98707075 11.93096728 33.98707075 14.78912449 36.25447559 C18.24662398 36.92124437 18.24662398 36.92124437 21.78912449 36.25447559 C24.4479705 34.26427442 24.4479705 34.26427442 25.78912449 31.25447559 C25.72399094 27.99779791 25.39298211 26.08837422 23.47662449 23.44197559 C19.18336385 20.42079218 16.93656737 21.19846505 12.78912449 24.25447559 Z M72.78912449 24.25447559 C71.36870628 27.09531201 71.47460177 29.10924837 71.78912449 32.25447559 C73.28912449 34.75447559 73.28912449 34.75447559 75.78912449 36.25447559 C79.46083319 36.86642704 81.07726017 36.74154065 84.16412449 34.62947559 C86.27618955 31.54261128 86.40107594 29.92618429 85.78912449 26.25447559 C83.99324764 23.88135261 82.52049418 22.60836415 79.85162449 21.31697559 C76.81248784 21.22488054 75.19763068 22.49691702 72.78912449 24.25447559 Z " fill="#2A8BFF" transform="translate(59.210875511169434,47.745524406433105)"/>
<path d="M0 0 C26.52854959 -0.90066063 51.10607262 9.65407058 70.34375 27.4765625 C88.0928065 46.23859245 96.51884885 72.5334828 95.83984375 98.05859375 C94.64218588 123.1617411 83.09308052 146.34364529 64.59375 163.1640625 C48.81073742 176.57872948 28.50936326 185.6355091 7.59375 186.1640625 C6.46066406 186.22207031 6.46066406 186.22207031 5.3046875 186.28125 C-17.57969689 186.95212772 -40.09268749 179.11819519 -57.40625 164.1640625 C-58.12941406 163.58398438 -58.85257813 163.00390625 -59.59765625 162.40625 C-77.21597891 147.76006177 -87.34058418 126.10662612 -90.08984375 103.6171875 C-92.32081409 79.26931369 -85.86750389 53.32138508 -70.5300293 33.99902344 C-55.76541921 16.29303644 -35.39572599 4.23730842 -12.40625 1.1640625 C-11.601875 1.05449219 -10.7975 0.94492188 -9.96875 0.83203125 C-6.65081826 0.44321112 -3.33200826 0.22718238 0 0 Z M-41.40625 35.1640625 C-42.24027344 35.82148438 -43.07429688 36.47890625 -43.93359375 37.15625 C-57.58358595 48.63991061 -66.8356095 65.48222449 -69.40625 83.1640625 C-70.35708408 94.30947281 -70.23039802 105.55513573 -66.40625 116.1640625 C-66.0659375 117.1540625 -65.725625 118.1440625 -65.375 119.1640625 C-58.89562472 136.32565109 -45.57956761 149.83120565 -29.40625 158.1640625 C-11.12189098 166.40253231 8.59134745 168.35855502 27.59375 161.1640625 C46.49445153 153.47454632 60.54244899 141.01895965 69.3125 122.28515625 C77.15166917 103.18913135 77.52836173 83.30194677 69.59375 64.1640625 C61.02764163 44.902021 45.96564228 31.89232006 26.59375 24.1640625 C3.2490485 16.28630785 -22.00337775 19.77879943 -41.40625 35.1640625 Z " fill="#1B9EFF" transform="translate(173.40625,158.8359375)"/>
<path d="M0 0 C0.22950786 7.48840949 0.38634642 14.97590241 0.49438477 22.46704102 C0.53945218 25.01133106 0.60072676 27.55539052 0.67895508 30.09887695 C1.39473126 53.98147449 1.39473126 53.98147449 -4.25390625 60.91796875 C-5.79221581 62.32788673 -7.37403028 63.69214395 -9 65 C-10.52268334 66.64596878 -12.02557346 68.31066754 -13.5 70 C-14.61181641 71.22009766 -14.61181641 71.22009766 -15.74609375 72.46484375 C-18.87532281 75.98454854 -21.81938689 79.644075 -24.78125 83.3046875 C-28.0742501 87.30498692 -31.52128406 91.16109003 -35 95 C-39.77293511 91.76806488 -41.77764513 88.30458839 -44.1875 83.25 C-44.52974609 82.57195312 -44.87199219 81.89390625 -45.22460938 81.1953125 C-51.47449288 68.42856017 -52.29163683 52.60066317 -48.4375 38.9375 C-42.12486085 21.91317002 -31.14460892 10.71168605 -15 3 C-9.8524399 0.96968745 -5.52515403 -0.05478926 0 0 Z " fill="#15A6FF" transform="translate(169,195)"/>
<path d="M0 0 C2.51205958 0.15171124 5.02443715 0.29825132 7.53710938 0.43945312 C13.67551951 0.79568779 19.80688947 1.21644554 25.9375 1.6875 C27.78899315 5.3904863 25.44070951 9.48433691 24.2265625 13.23828125 C19.0398061 27.11678397 8.79538641 37.59518813 -4.0625 44.6875 C-18.51295618 51.10372572 -36.1030063 52.29457231 -51.0625 46.6875 C-54.48385738 45.16488267 -57.79510167 43.51637561 -61.0625 41.6875 C-59.43070117 37.85552297 -56.88649499 34.92628988 -54.1875 31.8125 C-53.7042627 31.24805176 -53.22102539 30.68360352 -52.72314453 30.10205078 C-51.17362395 28.29369605 -49.61849033 26.49028929 -48.0625 24.6875 C-46.52097487 22.89652454 -44.98039882 21.10474472 -43.44091797 19.31201172 C-42.48327931 18.19761766 -41.52413035 17.08451839 -40.56298828 15.97314453 C-39.87825439 15.1781958 -39.87825439 15.1781958 -39.1796875 14.3671875 C-38.67397217 13.81683838 -38.16825684 13.26648926 -37.6472168 12.69946289 C-35.91874666 10.64925112 -35.91874666 10.64925112 -34.64379883 7.79858398 C-27.28914971 -5.01099316 -12.78830159 -0.98435774 0 0 Z " fill="#1D9BFF" transform="translate(206.0625,259.3125)"/>
<path d="M0 0 C15.31547782 1.91443473 28.16047629 9.03583578 38 21 C44.32795098 30.08353849 49.25887594 39.73889679 49 51 C45.33335268 51.0303995 41.66673904 51.04724009 38 51.0625 C36.51306641 51.07506836 36.51306641 51.07506836 34.99609375 51.08789062 C23.2875509 51.1238064 11.74378027 50.48932418 0 50 C0 33.5 0 17 0 0 Z " fill="#2097FF" transform="translate(184,195)"/>
<path d="M0 0 C5.61 0 11.22 0 17 0 C17 25.08 17 50.16 17 76 C11.39 76 5.78 76 0 76 C0 50.92 0 25.84 0 0 Z " fill="#4A65FF" transform="translate(414,341)"/>
<path d="M0 0 C5.61 0 11.22 0 17 0 C17 25.08 17 50.16 17 76 C11.39 76 5.78 76 0 76 C0 50.92 0 25.84 0 0 Z " fill="#3D74FF" transform="translate(349,341)"/>
<path d="M0 0 C5.94 0 11.88 0 18 0 C18 11.88 18 23.76 18 36 C12.06 36 6.12 36 0 36 C0 24.12 0 12.24 0 0 Z " fill="#3183FF" transform="translate(284,381)"/>
</svg>
