<?xml version="1.0" encoding="UTF-8"?>
<svg version="1.1" xmlns="http://www.w3.org/2000/svg" width="512" height="512">
<path d="M0 0 C0.59393555 0.2151123 1.18787109 0.43022461 1.79980469 0.65185547 C10.6142975 3.47676089 19.12323635 3.31082138 28.25 3.125 C30.52925311 3.089674 32.80844239 3.05889817 35.08782959 3.03366089 C37.14493898 3.00924493 39.20188537 2.97206106 41.25878906 2.93408203 C44.96626545 2.99940562 48.35101424 3.39459204 52 4 C53.41436216 8.24308648 52.28518484 11.40560981 51.3125 15.6875 C51.15072266 16.46544922 50.98894531 17.24339844 50.82226562 18.04492188 C49.74945529 22.86252333 48.22484469 26.98829863 45.86694336 31.32714844 C43.64676071 35.61120688 43.59982751 40.27796458 44 45 C45.81683913 50.27278312 48.23073973 53.94278188 53 57 C59.10512962 59.03504321 64.30815453 58.64577219 70.125 55.875 C78.75421192 51.08692105 85.74916077 44.3591833 89.80615234 35.17504883 C92.03007459 30.39784795 92.03007459 30.39784795 94.81713867 29.25463867 C96.97590675 28.86345251 99.05924881 28.67281168 101.25 28.5625 C101.99507812 28.49869141 102.74015625 28.43488281 103.5078125 28.36914062 C105.33633407 28.21676383 107.16811145 28.10437505 109 28 C109.32871094 29.43279297 109.32871094 29.43279297 109.6640625 30.89453125 C113.09625466 45.16815112 118.90942671 57.97441915 131.625 66.3125 C136.72701509 69.16362608 142.06504368 70.68645923 147.703125 72.140625 C157.14724617 74.60236275 157.14724617 74.60236275 160.9375 78.625 C161.61941406 79.34171875 162.30132812 80.0584375 163.00390625 80.796875 C165.40828617 83.45063288 167.75293704 86.15068011 170.0859375 88.8671875 C173.10838777 92.23506066 176.35980667 95.36756659 179.578125 98.546875 C182.31575484 101.3198291 184.86234303 104.21264317 187.39453125 107.171875 C189.80390291 109.9153931 192.38712209 112.45085082 195 115 C194.57576756 116.46224799 194.13509755 117.91973412 193.6875 119.375 C193.44386719 120.18710937 193.20023438 120.99921875 192.94921875 121.8359375 C192 124 192 124 189 126 C182.20222994 127.31897031 176.81589487 125.65377397 170.9921875 122.15625 C160.90977742 114.89059678 152.50694196 105.85540662 145 96 C144.12444262 94.86661182 143.24810519 93.73382591 142.37109375 92.6015625 C140.66013118 90.38853665 138.95844622 88.16936429 137.26171875 85.9453125 C135.20680444 83.2693101 133.11766106 80.62648122 131 78 C128.525 78.495 128.525 78.495 126 79 C125.43613631 83.83689324 127.04520737 85.94908838 130 89.6875 C130.41008301 90.21150391 130.82016602 90.73550781 131.24267578 91.27539062 C132.48528643 92.85802865 133.74252729 94.42914459 135 96 C135.65742188 96.85207031 136.31484375 97.70414062 136.9921875 98.58203125 C147.8782463 112.56226029 159.30822326 124.5036065 175 133 C172.6399592 140.32802584 172.6399592 140.32802584 170 142 C162.4875672 144.08678689 156.02002935 142.05896139 149 139 C134.75140526 130.78407642 121.75421263 116.62698713 112.57397461 103.11450195 C111.29693248 101.24135827 111.29693248 101.24135827 109 99 C105.79639741 98.50277285 105.79639741 98.50277285 103 99 C102.62688418 102.29881765 102.81649803 103.71758917 104.65234375 106.54296875 C105.40644531 107.41566406 106.16054688 108.28835938 106.9375 109.1875 C107.75734375 110.14527344 108.5771875 111.10304688 109.421875 112.08984375 C112.58356095 115.65871653 115.74663742 119.22375092 118.96875 122.73828125 C120.63268209 124.59100563 122.15907934 126.47571616 123.6875 128.4375 C129.98625304 135.88954585 138.87054823 141.70842087 147 147 C146.50958904 153.37534247 146.50958904 153.37534247 144.0625 156.375 C139.87780208 159.67203473 136.16978116 159.5446029 131 159 C119.64924723 156.17580319 111.75778044 147.90020482 103.6875 139.9375 C102.80723145 139.0714917 102.80723145 139.0714917 101.90917969 138.18798828 C99.0631287 135.31999459 96.54225605 132.46549502 94.25 129.1328125 C92.31685285 125.84513861 92.31685285 125.84513861 89.3125 124.9375 C86.80139781 124.74010576 86.80139781 124.74010576 85 127 C86.00455487 137.3731209 101.63461717 149.48873819 109 156 C112.80064578 158.9774229 116.83002894 161.56945821 121 164 C119.23001953 167.82442209 117.99503649 169.33540146 114 171 C103.65142675 172.52563336 95.92865212 168.61258112 87.75 162.625 C85.82467107 161.09416502 83.90702973 159.55357163 82 158 C81.3090625 157.50628906 80.618125 157.01257813 79.90625 156.50390625 C78.25 155.1875 78.25 155.1875 76 152 C75.76828146 148.93616593 75.87891981 145.97452204 76.015625 142.90625 C75.99683994 139.41222905 75.4594255 137.32166916 73.54296875 134.4296875 C71.53532499 132.56944037 69.45234991 131.75218098 66.9375 130.6875 C62.30619952 128.6524322 62.30619952 128.6524322 60.89453125 125.64453125 C60.46748668 123.89235446 60.0583632 122.13570518 59.66796875 120.375 C58.84430495 117.44641762 57.46556509 115.66481927 55.0078125 113.85546875 C52.33626316 112.71720162 49.82265292 112.58541987 46.9375 112.3125 C43.76953125 111.91796875 43.76953125 111.91796875 41 111 C39.15022962 108.57244587 38.17177072 106.24260464 37.046875 103.4140625 C35.45529953 99.74393698 33.61765499 98.60784666 30 97 C28.12671978 96.77673114 26.25147152 96.56963401 24.375 96.375 C21.484375 95.953125 21.484375 95.953125 19 95 C17.40717043 92.53198935 16.65316419 90.21763484 15.80078125 87.4140625 C14.64878983 83.94122982 13.20429475 82.7089572 10 81 C4.3101145 78.79281245 -0.16521475 78.63907049 -5.859375 80.87890625 C-10.85038678 83.49281205 -14.91650207 87.28406198 -18 92 C-23.64913063 90.34292168 -28.26300637 88.52237988 -33 85 C-32.41152435 81.49849268 -31.49978039 78.61277078 -29.953125 75.421875 C-29.52684814 74.52525146 -29.10057129 73.62862793 -28.66137695 72.70483398 C-27.96274536 71.24219116 -27.96274536 71.24219116 -27.25 69.75 C-16.67697351 47.13219862 -7.87659816 23.68077569 0 0 Z " fill="#6D7CEC" transform="translate(169,212)"/>
<path d="M0 0 C4.77141446 1.56334147 9.51984043 3.13004265 14.17626953 5.0144043 C15.09209808 5.38350922 16.00792664 5.75261414 16.95150757 6.13290405 C17.9188382 6.5260379 18.88616882 6.91917175 19.8828125 7.32421875 C20.9199942 7.74329498 21.9571759 8.16237122 23.02578735 8.59414673 C26.39333135 9.95580078 29.75920752 11.32152287 33.125 12.6875 C35.44948963 13.62863433 37.77403436 14.56963256 40.09863281 15.51049805 C60.09237504 23.6087124 80.05619767 31.7796327 100 40 C96.91580794 52.03593176 93.62666347 63.96725013 89.875 75.8125 C89.64011871 76.55601715 89.40523743 77.2995343 89.16323853 78.06558228 C77.85649387 113.74515761 64.94178925 152.58731612 44 184 C38.90209016 183.38284433 34.74936673 181.07348878 30.234375 178.78125 C29.4003717 178.36331177 28.56636841 177.94537354 27.70709229 177.51477051 C25.95077724 176.6332599 24.19590043 175.74887866 22.44238281 174.86181641 C19.74854868 173.49926592 17.050498 172.14538187 14.3515625 170.79296875 C12.64558199 169.93539565 10.93984418 169.07733955 9.234375 168.21875 C8.42401794 167.81144653 7.61366089 167.40414307 6.77874756 166.98449707 C1.11719328 164.11719328 1.11719328 164.11719328 0 163 C-0.09687035 160.89906175 -0.12186861 158.79480483 -0.12025452 156.69163513 C-0.12110894 156.02516167 -0.12196337 155.35868821 -0.12284368 154.67201859 C-0.12450035 152.42251366 -0.11897411 150.17308212 -0.11352539 147.92358398 C-0.11324353 146.31754559 -0.11340122 144.71150707 -0.1139679 143.10546875 C-0.11425593 138.73168933 -0.10835832 134.35793708 -0.10139394 129.984164 C-0.09516131 125.41840422 -0.09455667 120.85264387 -0.09336853 116.28688049 C-0.09025495 107.63478695 -0.08204119 98.98270597 -0.07201904 90.33061796 C-0.06085874 80.48314177 -0.05534766 70.63566499 -0.05032361 60.78818405 C-0.0398586 40.525449 -0.02225864 20.26272529 0 0 Z " fill="#AD44F4" transform="translate(36,131)"/>
<path d="M0 0 C0 53.79 0 107.58 0 163 C-22.83774834 175.01986755 -22.83774834 175.01986755 -31 179.125 C-31.9384375 179.60453125 -32.876875 180.0840625 -33.84375 180.578125 C-35.18953125 181.25488281 -35.18953125 181.25488281 -36.5625 181.9453125 C-37.34753906 182.34250488 -38.13257813 182.73969727 -38.94140625 183.14892578 C-41 184 -41 184 -44 184 C-69.45739231 139.64862375 -86.77156659 90.28095998 -100 41 C-96.95386464 38.50167223 -94.00927126 37.04252704 -90.34765625 35.609375 C-89.1975708 35.1548999 -88.04748535 34.7004248 -86.86254883 34.23217773 C-85.9375206 33.87142654 -85.9375206 33.87142654 -84.99380493 33.50338745 C-82.32840928 32.46363676 -79.66851456 31.41013763 -77.00822449 30.35740662 C-75.57994265 29.79227512 -74.15139849 29.22780621 -72.72261047 28.66395569 C-65.01930028 25.62142354 -57.3435708 22.51166522 -49.67004395 19.39492798 C-47.31784518 18.43967074 -44.96513045 17.48569419 -42.61230469 16.53198242 C-35.30831185 13.57002429 -28.00899386 10.59720863 -20.71875 7.6015625 C-19.44753183 7.08010572 -18.17629225 6.55870111 -16.9050293 6.03735352 C-14.56668388 5.07738446 -12.22953966 4.11448249 -9.89379883 3.14819336 C-8.87310303 2.72932861 -7.85240723 2.31046387 -6.80078125 1.87890625 C-5.91559814 1.5135376 -5.03041504 1.14816895 -4.1184082 0.77172852 C-2 0 -2 0 0 0 Z " fill="#AD44F4" transform="translate(476,131)"/>
<path d="M0 0 C4.15216925 2.34194295 8.04279105 5.0449226 11.97167969 7.73999023 C21.08294054 13.92524914 29.89597784 17.96291287 40.9375 19.109375 C45.55526689 21.47346381 46.16378717 25.79700662 47.71484375 30.53125 C48.51380976 32.75289639 49.31746669 34.97285958 50.125 37.19140625 C50.76489868 38.98058472 50.76489868 38.98058472 51.41772461 40.8059082 C59.99930397 64.76482084 70.55033961 87.67003859 81.71484375 110.53125 C78.63761773 113.73965439 75.64345509 116.44273824 71.90234375 118.84375 C71.11214844 119.35550781 70.32195312 119.86726563 69.5078125 120.39453125 C68.91613281 120.76964844 68.32445312 121.14476562 67.71484375 121.53125 C63.38213631 119.86563497 60.57959965 116.65678843 57.40234375 113.40625 C56.82347412 112.82093506 56.24460449 112.23562012 55.64819336 111.63256836 C52.03141214 107.95075722 48.54836734 104.1879854 45.21484375 100.24609375 C43.64764426 98.45442559 41.98953925 96.80899427 40.27734375 95.15625 C37.71484375 92.53125 37.71484375 92.53125 37.71484375 90.53125 C42.33484375 89.87125 46.95484375 89.21125 51.71484375 88.53125 C51.71484375 86.88125 51.71484375 85.23125 51.71484375 83.53125 C49.875326 81.25360385 49.875326 81.25360385 47.09204102 81.35180664 C45.45319946 81.39615845 45.45319946 81.39615845 43.78125 81.44140625 C42.57404297 81.46138672 41.36683594 81.48136719 40.12304688 81.50195312 C37.59428339 81.56231467 35.06562497 81.62728582 32.53710938 81.69726562 C20.32291772 81.88458004 10.362075 79.44732723 0.08984375 72.84375 C-11.17829181 61.87214432 -13.0505361 48.44416186 -14.28515625 33.53125 C-18.83755385 33.36045115 -18.83755385 33.36045115 -23.03515625 34.96875 C-29.28953491 37.97566282 -36.4451926 37.67994486 -43.28515625 37.53125 C-43.54683594 38.4078125 -43.80851562 39.284375 -44.078125 40.1875 C-47.72455599 50.2889399 -55.0064442 60.0123952 -64.28515625 65.53125 C-68.56132212 66.95663862 -72.40904365 67.27182076 -76.66015625 65.59375 C-79.4122495 62.10070857 -79.7453409 58.80860734 -79.28515625 54.53125 C-78.20899172 51.46311205 -76.99919845 48.52518936 -75.69311523 45.55175781 C-72.14125514 37.2712972 -70.88290972 28.62514916 -69.8359375 19.703125 C-69.28515625 16.53125 -69.28515625 16.53125 -67.28515625 14.28125 C-61.7539217 11.05469651 -55.96321592 9.68168642 -49.75 8.25317383 C-41.54855268 6.34404598 -34.15084785 3.56044759 -26.515625 0.01953125 C-18.06281766 -3.87468833 -8.50615203 -3.86016624 0 0 Z " fill="#9955F2" transform="translate(300.28515625,195.46875)"/>
<path d="M0 0 C3.43493576 0.59772664 6.44231496 1.47527784 9.64453125 2.84765625 C10.48564453 3.20537109 11.32675781 3.56308594 12.19335938 3.93164062 C13.05767578 4.30482422 13.92199219 4.67800781 14.8125 5.0625 C16.13797852 5.62807617 16.13797852 5.62807617 17.49023438 6.20507812 C19.66201124 7.13248554 21.83181367 8.06423634 24 9 C16.45853064 48.51729945 -0.85452559 91.75429901 -22 126 C-26.6393176 124.36047417 -30.63855858 121.93128948 -34.8125 119.375 C-35.50537109 118.95476562 -36.19824219 118.53453125 -36.91210938 118.1015625 C-38.61010748 117.0710533 -40.30533614 116.03598319 -42 115 C-41.40476472 111.43372647 -40.44888366 108.49963441 -38.8828125 105.24609375 C-38.22877441 103.86502441 -38.22877441 103.86502441 -37.56152344 102.45605469 C-37.0874707 101.45993164 -36.61341797 100.46380859 -36.125 99.4375 C-26.38585355 78.48088716 -18.52256596 56.97330853 -11.0625 35.125 C-10.57771179 33.70725281 -10.57771179 33.70725281 -10.08312988 32.26086426 C-6.44048555 21.57915005 -2.9440092 10.89753619 0 0 Z " fill="#9658F1" transform="translate(141,184)"/>
<path d="M0 0 C0.27561768 0.8979126 0.55123535 1.7958252 0.83520508 2.72094727 C11.71368937 38.08060642 22.83362591 74.09336742 39.85424805 107.08154297 C42.04952766 111.46741768 42.04952766 111.46741768 41.81103516 114.03198242 C40.75761771 116.58815282 39.63587564 117.21257681 37.25390625 118.578125 C36.49916016 119.01640625 35.74441406 119.4546875 34.96679688 119.90625 C34.17337891 120.3496875 33.37996094 120.793125 32.5625 121.25 C31.37817383 121.93835938 31.37817383 121.93835938 30.16992188 122.640625 C24.30601283 126 24.30601283 126 22 126 C2.11665019 89.41223714 -13.24242573 51.24355522 -24 11 C-21.82235686 8.59423504 -19.83296423 7.27068808 -16.875 5.95703125 C-16.08609375 5.60576172 -15.2971875 5.25449219 -14.484375 4.89257812 C-13.66453125 4.53615234 -12.8446875 4.17972656 -12 3.8125 C-10.77023437 3.26045898 -10.77023437 3.26045898 -9.515625 2.69726562 C-3.39048006 0 -3.39048006 0 0 0 Z " fill="#9657F1" transform="translate(371,184)"/>
<path d="M0 0 C3.375 2 3.375 2 6 5 C6.85785676 11.45403172 6.85785676 11.45403172 4.99072266 14.81884766 C3.61658635 16.58039228 2.16848811 18.19762556 0.625 19.8125 C-0.38372246 20.92235072 -1.39156746 22.03299972 -2.3984375 23.14453125 C-3.68621094 24.55798828 -3.68621094 24.55798828 -5 26 C-5.66 26.99 -6.32 27.98 -7 29 C-13.90309278 29.77938144 -13.90309278 29.77938144 -17.375 27.3125 C-20.13865117 23.37961179 -21.76990663 19.82880033 -21 15 C-19.13310496 12.33339028 -16.90340491 10.066859 -14.625 7.75 C-13.72007812 6.79480469 -13.72007812 6.79480469 -12.796875 5.8203125 C-8.59469027 1.43136401 -6.42797694 -0.74168965 0 0 Z " fill="#4F96E8" transform="translate(195,316)"/>
<path d="M0 0 C1.98828125 0.515625 1.98828125 0.515625 4.55078125 2.015625 C6.57031165 5.52785178 6.71732466 8.61979927 5.98828125 12.515625 C4.48828125 15.453125 4.48828125 15.453125 1.98828125 18.515625 C1.11429688 19.70671875 1.11429688 19.70671875 0.22265625 20.921875 C-4.68864456 27.1866839 -4.68864456 27.1866839 -8.1328125 28.04296875 C-11.89048016 27.76593843 -13.92282665 26.57859024 -17.01171875 24.390625 C-19.56984841 20.71331361 -19.70678454 18.91770833 -19.01171875 14.515625 C-17.51171875 11.578125 -17.51171875 11.578125 -15.01171875 8.515625 C-14.44066406 7.80535156 -13.86960938 7.09507812 -13.28125 6.36328125 C-9.21658511 1.74692532 -6.31915151 -0.65483435 0 0 Z " fill="#5D89EA" transform="translate(173.01171875,299.484375)"/>
<path d="M0 0 C1.90625 0.3828125 1.90625 0.3828125 4.40625 2.0078125 C6.36568319 5.11024839 6.31039369 6.74996043 5.90625 10.3828125 C4.11328125 13.1640625 4.11328125 13.1640625 1.71875 15.8828125 C0.89246094 16.82769531 0.06617188 17.77257812 -0.78515625 18.74609375 C-1.54699219 19.61621094 -2.30882812 20.48632812 -3.09375 21.3828125 C-3.97293819 22.60898696 -4.84899568 23.83742843 -5.71875 25.0703125 C-8.09375 27.3828125 -8.09375 27.3828125 -11.59375 28.1328125 C-16.25674376 27.13359955 -17.52446561 25.31230627 -20.09375 21.3828125 C-20.86206055 19.37304688 -20.86206055 19.37304688 -21.09375 17.3828125 C-19.44061238 15.02374044 -17.8262507 13.00226259 -15.90625 10.8828125 C-15.41060547 10.31433594 -14.91496094 9.74585938 -14.40429688 9.16015625 C-12.98813096 7.54756045 -11.54560545 5.96324748 -10.09375 4.3828125 C-9.39636719 3.5990625 -8.69898438 2.8153125 -7.98046875 2.0078125 C-5.26554512 -0.33050682 -3.44981042 -0.1930864 0 0 Z " fill="#43A1E7" transform="translate(216.09375,331.6171875)"/>
<path d="M0 0 C2.8203125 0.5546875 2.8203125 0.5546875 5.7578125 3.1796875 C7.8203125 6.5546875 7.8203125 6.5546875 8.0078125 9.4296875 C5.82277576 15.17978419 2.07845783 20.26325157 -3.1796875 23.5546875 C-7.61270736 23.5546875 -9.65082306 22.96235384 -13.1796875 20.2421875 C-15.1796875 17.5546875 -15.1796875 17.5546875 -14.94799805 15.58886719 C-13.6613674 12.18238274 -11.2973351 9.56843495 -8.9921875 6.8046875 C-8.52232422 6.20269531 -8.05246094 5.60070312 -7.56835938 4.98046875 C-5.07413266 1.97923006 -3.95191419 0.68940026 0 0 Z " fill="#35ACE5" transform="translate(230.1796875,348.4453125)"/>
</svg>
