<?xml version="1.0" encoding="UTF-8"?>
<svg version="1.1" xmlns="http://www.w3.org/2000/svg" width="500" height="500">
<path d="M0 0 C5.63771876 5.25531536 9.22564495 11.56175616 12.828125 18.31640625 C15.39123226 15.99453262 16.91040955 13.58328475 18.578125 10.56640625 C23.99146458 1.37444846 31.57322974 -5.42420381 42.01171875 -8.28125 C53.49311963 -10.98591698 64.25514807 -8.52954151 74.828125 -3.68359375 C74.828125 -3.02359375 74.828125 -2.36359375 74.828125 -1.68359375 C75.41956299 -1.41184326 76.01100098 -1.14009277 76.62036133 -0.86010742 C84.96000858 3.58407704 88.64252365 12.00096015 92.640625 20.12890625 C93.5544934 21.94757902 94.473506 23.76358424 95.39317322 25.57933044 C96.00418807 26.78577267 96.6137863 27.99293344 97.22193909 29.20082092 C99.81392982 34.33632127 102.56167226 39.37103486 105.390625 44.37890625 C108.19906828 49.37058971 110.91773662 54.36834133 113.43359375 59.515625 C118.31850272 69.3264926 123.4490964 79.02655523 128.953125 88.50390625 C132.19000766 94.09013924 135.11614471 99.77786405 137.96923828 105.56494141 C140.76876241 111.2370447 143.76979852 116.77978072 146.828125 122.31640625 C148.29640614 124.97775248 149.75279789 127.64523821 151.203125 130.31640625 C151.56148438 130.96424072 151.91984375 131.6120752 152.2890625 132.27954102 C153.84990505 135.16610897 154.828125 136.98246196 154.828125 140.31640625 C155.488125 140.31640625 156.148125 140.31640625 156.828125 140.31640625 C158.01536675 142.69088975 159.20217728 145.06557379 160.38671875 147.44140625 C161.32887941 149.32062102 162.27908045 151.19583183 163.23828125 153.06640625 C163.90150391 154.36578125 163.90150391 154.36578125 164.578125 155.69140625 C164.98546875 156.48289062 165.3928125 157.274375 165.8125 158.08984375 C169.28915155 165.71173368 169.05056613 176.41453837 167.0390625 184.48046875 C166.09668059 186.86160167 165.06444854 189.07584879 163.828125 191.31640625 C163.291875 192.34765625 162.755625 193.37890625 162.203125 194.44140625 C161.5225 195.36953125 161.5225 195.36953125 160.828125 196.31640625 C160.168125 196.31640625 159.508125 196.31640625 158.828125 196.31640625 C158.828125 196.97640625 158.828125 197.63640625 158.828125 198.31640625 C158.168125 198.31640625 157.508125 198.31640625 156.828125 198.31640625 C156.828125 198.97640625 156.828125 199.63640625 156.828125 200.31640625 C156.168125 200.31640625 155.508125 200.31640625 154.828125 200.31640625 C154.828125 200.97640625 154.828125 201.63640625 154.828125 202.31640625 C142.25153815 209.0693519 142.25153815 209.0693519 135.828125 209.31640625 C134.549375 209.37828125 133.270625 209.44015625 131.953125 209.50390625 C123.47691374 209.34058811 116.98520053 206.74939393 109.828125 202.31640625 C109.828125 201.65640625 109.828125 200.99640625 109.828125 200.31640625 C109.22871094 200.04828125 108.62929688 199.78015625 108.01171875 199.50390625 C101.16233709 195.7790189 97.91736044 188.10999038 94.828125 181.31640625 C94.59738281 181.95707031 94.36664063 182.59773437 94.12890625 183.2578125 C91.98536908 188.94284586 89.70819304 193.61948178 85.828125 198.31640625 C85.168125 198.31640625 84.508125 198.31640625 83.828125 198.31640625 C83.828125 198.97640625 83.828125 199.63640625 83.828125 200.31640625 C83.168125 200.31640625 82.508125 200.31640625 81.828125 200.31640625 C81.828125 200.97640625 81.828125 201.63640625 81.828125 202.31640625 C70.89782706 208.85391306 60.7757893 212.63927773 47.8671875 209.625 C41.69299823 207.55828959 35.78113385 204.59678427 30.828125 200.31640625 C30.828125 199.65640625 30.828125 198.99640625 30.828125 198.31640625 C30.168125 198.31640625 29.508125 198.31640625 28.828125 198.31640625 C27.45532227 196.45214844 27.45532227 196.45214844 25.89453125 193.86328125 C25.32798828 192.93386719 24.76144531 192.00445312 24.17773438 191.046875 C23.29311523 189.57154297 23.29311523 189.57154297 22.390625 188.06640625 C21.22691351 186.14352984 20.06160549 184.22161853 18.89453125 182.30078125 C18.37834229 181.44194336 17.86215332 180.58310547 17.33032227 179.69824219 C15.92914847 177.47658584 14.43615967 175.39163816 12.828125 173.31640625 C12.29239868 174.26108765 12.29239868 174.26108765 11.74584961 175.22485352 C10.09734468 178.11631044 8.43167849 180.99752787 6.765625 183.87890625 C6.20423828 184.86955078 5.64285156 185.86019531 5.06445312 186.88085938 C1.68712459 192.68986446 -1.75394992 198.19029008 -7.171875 202.31640625 C-7.831875 202.31640625 -8.491875 202.31640625 -9.171875 202.31640625 C-9.171875 202.97640625 -9.171875 203.63640625 -9.171875 204.31640625 C-10.94184974 205.13077493 -12.71288652 205.94283565 -14.484375 206.75390625 C-15.47050781 207.20636719 -16.45664063 207.65882813 -17.47265625 208.125 C-25.16183231 211.51891997 -34.38863478 211.57083664 -42.359375 208.87890625 C-43.63640816 208.37346483 -44.90835079 207.85472893 -46.171875 207.31640625 C-47.161875 206.98640625 -48.151875 206.65640625 -49.171875 206.31640625 C-49.171875 205.65640625 -49.171875 204.99640625 -49.171875 204.31640625 C-49.72875 204.25453125 -50.285625 204.19265625 -50.859375 204.12890625 C-54.20036296 202.95504562 -55.7910581 200.92396762 -58.171875 198.31640625 C-58.67074219 197.80980469 -59.16960937 197.30320312 -59.68359375 196.78125 C-64.07254353 192.1048627 -66.0261217 187.34102128 -68.171875 181.31640625 C-70.811875 186.26640625 -73.451875 191.21640625 -76.171875 196.31640625 C-76.831875 196.31640625 -77.491875 196.31640625 -78.171875 196.31640625 C-78.171875 196.97640625 -78.171875 197.63640625 -78.171875 198.31640625 C-78.831875 198.31640625 -79.491875 198.31640625 -80.171875 198.31640625 C-80.171875 198.97640625 -80.171875 199.63640625 -80.171875 200.31640625 C-80.831875 200.31640625 -81.491875 200.31640625 -82.171875 200.31640625 C-82.171875 200.97640625 -82.171875 201.63640625 -82.171875 202.31640625 C-94.75779941 209.07436566 -94.75779941 209.07436566 -101.171875 209.31640625 C-102.23148438 209.37248047 -102.23148438 209.37248047 -103.3125 209.4296875 C-113.96227747 209.77381296 -123.56737658 206.33644372 -131.50390625 199.14453125 C-139.52569115 190.35250471 -141.65359177 181.12021661 -141.4140625 169.54296875 C-140.73011021 160.43095921 -136.76525087 153.23865232 -132.33496094 145.38964844 C-129.97207403 141.1777182 -127.67150047 136.93134 -125.359375 132.69140625 C-124.84205811 131.74523437 -124.32474121 130.7990625 -123.79174805 129.82421875 C-120.06533068 122.99641559 -116.42764017 116.12628188 -112.82763672 109.23120117 C-109.96653372 103.77186693 -107.00050599 98.37892348 -103.984375 93.00390625 C-100.48107293 86.75395627 -97.18513632 80.45193574 -94.01953125 74.0234375 C-89.34899523 64.58587756 -84.59073004 55.08668837 -79.046875 46.12890625 C-76.54202805 42.07612017 -74.4055015 37.89614824 -72.296875 33.62890625 C-54.78114069 -1.78425102 -54.78114069 -1.78425102 -39.171875 -7.68359375 C-25.71943081 -11.77013263 -11.10526547 -8.60857809 0 0 Z M-18.171875 83.31640625 C-22.42089 91.18160423 -26.60245006 99.07465339 -30.609375 107.06640625 C-31.12177734 108.08444336 -31.12177734 108.08444336 -31.64453125 109.12304688 C-32.99406152 111.83033625 -34.2138369 114.44229194 -35.171875 117.31640625 C-31.55927212 115.97379139 -28.20772413 114.30939017 -24.80883789 112.49804688 C-6.49560228 102.88032042 13.68495378 99.97150285 34.015625 104.87890625 C43.87233482 108.0156395 52.96738684 113.04215734 61.828125 118.31640625 C60.32730291 113.22319087 58.10452091 108.82566389 55.578125 104.19140625 C54.77103084 102.69069769 53.96504784 101.18939104 53.16015625 99.6875 C52.76521973 98.95128418 52.3702832 98.21506836 51.96337891 97.45654297 C49.48890509 92.79176071 47.1565565 88.05544919 44.828125 83.31640625 C43.0028125 83.71859375 43.0028125 83.71859375 41.140625 84.12890625 C40.30789063 84.30808594 39.47515625 84.48726563 38.6171875 84.671875 C36.74573338 85.10435389 34.88524958 85.58711978 33.0390625 86.1171875 C26.16017784 87.992439 19.67085217 88.60662063 12.578125 88.62890625 C11.33712036 88.63688232 11.33712036 88.63688232 10.07104492 88.64501953 C4.423908 88.58076426 -0.71415434 87.72801854 -6.171875 86.31640625 C-7.32816406 86.03539062 -8.48445313 85.754375 -9.67578125 85.46484375 C-10.68511719 85.20960938 -11.69445312 84.954375 -12.734375 84.69140625 C-13.76691406 84.43101562 -14.79945313 84.170625 -15.86328125 83.90234375 C-17.00603516 83.61230469 -17.00603516 83.61230469 -18.171875 83.31640625 Z " fill="#BC85E9" transform="translate(237.171875,150.68359375)"/>
<path d="M0 0 C4.31730369 3.96106252 7.4728228 8.53065236 10.48828125 13.51171875 C10.8558252 14.09751709 11.22336914 14.68331543 11.60205078 15.28686523 C13.34907372 18.35127991 13.94146047 19.97936388 13.26953125 23.48046875 C11.88239359 26.34721992 10.40868583 29.0502248 8.73828125 31.76171875 C5.91722477 36.48684233 3.3535901 41.26607338 0.92578125 46.19921875 C-1.73487996 51.60467786 -4.46944585 56.95604194 -7.32421875 62.26171875 C-13.0667809 72.81314849 -13.0667809 72.81314849 -17.82421875 83.82421875 C-20.50790889 90.77088994 -24.18925982 97.24691883 -27.69921875 103.80078125 C-29.92508418 107.9584302 -32.04707923 112.15906842 -34.13671875 116.38671875 C-33.22792969 115.86722656 -32.31914062 115.34773438 -31.3828125 114.8125 C-16.97249049 106.75239103 -3.52028733 102.2088782 13.11328125 102.19921875 C14.75490234 102.18084961 14.75490234 102.18084961 16.4296875 102.16210938 C22.90174524 102.15048292 28.60651017 102.71692647 34.86328125 104.38671875 C34.86328125 104.71671875 34.86328125 105.04671875 34.86328125 105.38671875 C27.11328125 106.51171875 27.11328125 106.51171875 24.86328125 105.38671875 C20.61828497 105.14187843 16.36453764 105.2015093 12.11328125 105.19921875 C10.9325 105.18697266 9.75171875 105.17472656 8.53515625 105.16210938 C7.39046875 105.16017578 6.24578125 105.15824219 5.06640625 105.15625 C4.02129883 105.15214111 2.97619141 105.14803223 1.89941406 105.14379883 C-1.41731283 105.40916898 -4.06419931 106.12050684 -7.13671875 107.38671875 C-8.1491356 108.71064847 -9.15111264 110.04271042 -10.13671875 111.38671875 C-11.45671875 111.38671875 -12.77671875 111.38671875 -14.13671875 111.38671875 C-14.13671875 110.72671875 -14.13671875 110.06671875 -14.13671875 109.38671875 C-14.76320313 109.67546875 -15.3896875 109.96421875 -16.03515625 110.26171875 C-17.26105469 110.81859375 -17.26105469 110.81859375 -18.51171875 111.38671875 C-19.72988281 111.94359375 -19.72988281 111.94359375 -20.97265625 112.51171875 C-23.13671875 113.38671875 -23.13671875 113.38671875 -25.13671875 113.38671875 C-25.13671875 114.04671875 -25.13671875 114.70671875 -25.13671875 115.38671875 C-26.45671875 115.38671875 -27.77671875 115.38671875 -29.13671875 115.38671875 C-29.34296875 116.00546875 -29.54921875 116.62421875 -29.76171875 117.26171875 C-31.13671875 119.38671875 -31.13671875 119.38671875 -33.9140625 120.00390625 C-38.60743749 122.01779079 -39.82903952 125.21067651 -42.07421875 129.63671875 C-42.50387939 130.4472168 -42.93354004 131.25771484 -43.3762207 132.09277344 C-44.65160025 134.51349382 -45.89842651 136.94685464 -47.13671875 139.38671875 C-47.47380859 140.04414063 -47.81089844 140.7015625 -48.15820312 141.37890625 C-50.19572513 145.3599765 -52.1699077 149.3703803 -54.13671875 153.38671875 C-55.44450429 156.01408349 -56.75931621 158.63791019 -58.07421875 161.26171875 C-58.66074219 162.43476563 -59.24726563 163.6078125 -59.8515625 164.81640625 C-60.27566406 165.66460937 -60.69976562 166.5128125 -61.13671875 167.38671875 C-61.79671875 167.38671875 -62.45671875 167.38671875 -63.13671875 167.38671875 C-63.98929482 170.61268224 -64.61276105 173.85255563 -65.19921875 177.13671875 C-65.37582031 178.1215625 -65.55242187 179.10640625 -65.734375 180.12109375 C-65.86714844 180.86875 -65.99992187 181.61640625 -66.13671875 182.38671875 C-66.79671875 182.05671875 -67.45671875 181.72671875 -68.13671875 181.38671875 C-70.77671875 186.33671875 -73.41671875 191.28671875 -76.13671875 196.38671875 C-76.79671875 196.38671875 -77.45671875 196.38671875 -78.13671875 196.38671875 C-78.13671875 197.04671875 -78.13671875 197.70671875 -78.13671875 198.38671875 C-78.79671875 198.38671875 -79.45671875 198.38671875 -80.13671875 198.38671875 C-80.13671875 199.04671875 -80.13671875 199.70671875 -80.13671875 200.38671875 C-80.79671875 200.38671875 -81.45671875 200.38671875 -82.13671875 200.38671875 C-82.13671875 201.04671875 -82.13671875 201.70671875 -82.13671875 202.38671875 C-94.72264316 209.14467816 -94.72264316 209.14467816 -101.13671875 209.38671875 C-102.19632813 209.44279297 -102.19632813 209.44279297 -103.27734375 209.5 C-113.92712122 209.84412546 -123.53222033 206.40675622 -131.46875 199.21484375 C-139.4905349 190.42281721 -141.61843552 181.19052911 -141.37890625 169.61328125 C-140.69495396 160.50127171 -136.73009462 153.30896482 -132.29980469 145.45996094 C-129.93691778 141.2480307 -127.63634422 137.0016525 -125.32421875 132.76171875 C-124.80690186 131.81554687 -124.28958496 130.869375 -123.7565918 129.89453125 C-120.03017443 123.06672809 -116.39248392 116.19659438 -112.79248047 109.30151367 C-109.93137747 103.84217943 -106.96534974 98.44923598 -103.94921875 93.07421875 C-100.44591668 86.82426877 -97.14998007 80.52224824 -93.984375 74.09375 C-89.31383898 64.65619006 -84.55557379 55.15700087 -79.01171875 46.19921875 C-76.5068718 42.14643267 -74.37034525 37.96646074 -72.26171875 33.69921875 C-54.74598444 -1.71393852 -54.74598444 -1.71393852 -39.13671875 -7.61328125 C-25.63442401 -11.71496356 -11.22204725 -8.47295341 0 0 Z " fill="#79C1F6" transform="translate(237.13671875,150.61328125)"/>
<path d="M0 0 C1.13888672 -0.00128906 2.27777344 -0.00257813 3.45117188 -0.00390625 C4.63130859 -0.00003906 5.81144531 0.00382813 7.02734375 0.0078125 C8.80334961 0.00201172 8.80334961 0.00201172 10.61523438 -0.00390625 C11.75283203 -0.00261719 12.89042969 -0.00132812 14.0625 0 C15.09898682 0.00112793 16.13547363 0.00225586 17.20336914 0.00341797 C19.63625542 0.11741582 21.63391082 0.48520483 23.96484375 1.1328125 C25.29969398 1.07898789 26.63352343 0.99375586 27.96484375 0.8828125 C38.58008651 0.81331828 48.95671708 7.70075332 56.96484375 14.1328125 C56.96484375 14.7928125 56.96484375 15.4528125 56.96484375 16.1328125 C57.56167969 16.34164063 58.15851563 16.55046875 58.7734375 16.765625 C61.82393038 18.66878455 62.52953128 20.75169844 64.02734375 24.0078125 C66.93144413 30.14076588 70.09463873 36.08320916 73.40234375 42.0078125 C78.17680826 50.59890142 82.64804485 59.30447189 86.96484375 68.1328125 C87.35800781 68.87144531 87.75117188 69.61007812 88.15625 70.37109375 C89.8335585 74.02551951 89.47298424 77.62934529 88.20703125 81.375 C86.24968777 85.95240956 84.00212241 90.18435025 80.96484375 94.1328125 C80.30484375 94.1328125 79.64484375 94.1328125 78.96484375 94.1328125 C78.96484375 94.7928125 78.96484375 95.4528125 78.96484375 96.1328125 C78.30484375 96.1328125 77.64484375 96.1328125 76.96484375 96.1328125 C76.96484375 96.7928125 76.96484375 97.4528125 76.96484375 98.1328125 C66.03454581 104.67031931 55.91250805 108.45568398 43.00390625 105.44140625 C36.82971698 103.37469584 30.9178526 100.41319052 25.96484375 96.1328125 C25.96484375 95.4728125 25.96484375 94.8128125 25.96484375 94.1328125 C25.30484375 94.1328125 24.64484375 94.1328125 23.96484375 94.1328125 C22.59204102 92.26855469 22.59204102 92.26855469 21.03125 89.6796875 C20.18143555 88.28556641 20.18143555 88.28556641 19.31445312 86.86328125 C18.72470703 85.87972656 18.13496094 84.89617187 17.52734375 83.8828125 C16.36363226 81.95993609 15.19832424 80.03802478 14.03125 78.1171875 C13.51506104 77.25834961 12.99887207 76.39951172 12.46704102 75.51464844 C11.06586722 73.29299209 9.57287842 71.20804441 7.96484375 69.1328125 C7.42911743 70.0774939 7.42911743 70.0774939 6.88256836 71.04125977 C5.23406343 73.93271669 3.56839724 76.81393412 1.90234375 79.6953125 C1.06026367 81.1812793 1.06026367 81.1812793 0.20117188 82.69726562 C-3.17615666 88.50627071 -6.61723117 94.00669633 -12.03515625 98.1328125 C-12.69515625 98.1328125 -13.35515625 98.1328125 -14.03515625 98.1328125 C-14.03515625 98.7928125 -14.03515625 99.4528125 -14.03515625 100.1328125 C-15.80513099 100.94718118 -17.57616777 101.7592419 -19.34765625 102.5703125 C-20.33378906 103.02277344 -21.31992188 103.47523438 -22.3359375 103.94140625 C-30.02511356 107.33532622 -39.25191603 107.38724289 -47.22265625 104.6953125 C-48.49968941 104.18987108 -49.77163204 103.67113518 -51.03515625 103.1328125 C-52.52015625 102.6378125 -52.52015625 102.6378125 -54.03515625 102.1328125 C-54.03515625 101.4728125 -54.03515625 100.8128125 -54.03515625 100.1328125 C-54.59203125 100.0709375 -55.14890625 100.0090625 -55.72265625 99.9453125 C-59.06364421 98.77145187 -60.65433935 96.74037387 -63.03515625 94.1328125 C-63.81826172 93.28589844 -63.81826172 93.28589844 -64.6171875 92.421875 C-70.1934248 86.2079658 -71.41801923 81.43908672 -71.3046875 73.09375 C-70.94921245 69.18867626 -69.90178287 66.5549613 -68.03515625 63.1328125 C-67.37515625 63.1328125 -66.71515625 63.1328125 -66.03515625 63.1328125 C-65.72578125 61.9778125 -65.41640625 60.8228125 -65.09765625 59.6328125 C-63.29214981 54.19074355 -60.51556442 49.45236473 -57.65771484 44.51416016 C-54.45777496 38.96371897 -51.55139226 33.30986911 -48.7746582 27.53686523 C-43.73963324 17.19149386 -43.73963324 17.19149386 -40.1484375 14.9609375 C-39.55417969 14.77015625 -38.95992187 14.579375 -38.34765625 14.3828125 C-34.95037153 13.52902275 -34.95037153 13.52902275 -34.03515625 11.1328125 C-32.71515625 11.1328125 -31.39515625 11.1328125 -30.03515625 11.1328125 C-30.03515625 10.4728125 -30.03515625 9.8128125 -30.03515625 9.1328125 C-28.76824118 8.45872942 -27.49644876 7.79380753 -26.22265625 7.1328125 C-25.51496094 6.7615625 -24.80726563 6.3903125 -24.078125 6.0078125 C-22.03515625 5.1328125 -22.03515625 5.1328125 -19.03515625 5.1328125 C-19.03515625 5.7928125 -19.03515625 6.4528125 -19.03515625 7.1328125 C-16.07876726 6.17398364 -14.39370826 5.62582152 -12.53515625 3.0703125 C-9.60809083 -0.71048034 -4.45549309 0.0048433 0 0 Z " fill="#6368DD" transform="translate(242.03515625,254.8671875)"/>
<path d="M0 0 C2.9171844 2.69998016 4.80044311 5.1320762 6.515625 8.7109375 C6.95817627 9.61932373 7.40072754 10.52770996 7.85668945 11.46362305 C8.54637817 12.90475464 8.54637817 12.90475464 9.25 14.375 C13.52911457 23.13264002 18.08387191 31.58771954 23 40 C24.13415298 42.01571064 25.2597631 44.03626235 26.375 46.0625 C26.83648437 46.89910156 27.29796875 47.73570312 27.7734375 48.59765625 C30.96620614 54.85100885 30.96620614 54.85100885 31.0625 58.125 C29.26975257 61.28867193 26.29521234 61.9629281 23 63 C22.12472656 63.28101563 21.24945313 63.56203125 20.34765625 63.8515625 C13.45775307 65.74916775 6.85487737 66.28421992 -0.25 66.3125 C-1.49076294 66.32059692 -1.49076294 66.32059692 -2.7565918 66.32885742 C-10.3655095 66.24153824 -17.31572838 64.62047853 -24.5625 62.375 C-25.40941406 62.11460937 -26.25632813 61.85421875 -27.12890625 61.5859375 C-27.74636719 61.39257812 -28.36382812 61.19921875 -29 61 C-30.03148909 57.77794501 -30.10648913 56.28226091 -28.89526367 53.07177734 C-28.32525635 52.0039502 -27.75524902 50.93612305 -27.16796875 49.8359375 C-26.70676888 48.95751945 -26.70676888 48.95751945 -26.23625183 48.06135559 C-25.23322874 46.15854863 -24.21075919 44.26698938 -23.1875 42.375 C-22.49237054 41.06619105 -21.79852889 39.75669734 -21.10595703 38.4465332 C-19.7243321 35.83731585 -18.33539431 33.23221808 -16.93994141 30.63037109 C-15.25261729 27.48056882 -13.59386689 24.31687229 -11.94921875 21.14453125 C-11.50747314 20.29391113 -11.06572754 19.44329102 -10.6105957 18.56689453 C-9.8181379 17.04085349 -9.02625669 15.51451281 -8.23510742 13.98779297 C-5.70983597 9.17780613 -2.93742049 4.56940554 0 0 Z " fill="#8B96E3" transform="translate(250,174)"/>
<path d="M0 0 C0.66 0.33 1.32 0.66 2 1 C-1.49746423 10.22226095 -5.94525659 18.80443013 -10.59765625 27.484375 C-12.81308327 31.61793992 -14.92190776 35.79582262 -17 40 C-15.63681641 39.22076172 -15.63681641 39.22076172 -14.24609375 38.42578125 C0.16422826 30.36567228 13.61643142 25.82215945 30.25 25.8125 C31.34441406 25.80025391 32.43882812 25.78800781 33.56640625 25.77539062 C40.03846399 25.76376417 45.74322892 26.33020772 52 28 C52 28.33 52 28.66 52 29 C44.25 30.125 44.25 30.125 42 29 C37.75500372 28.75515968 33.50125639 28.81479055 29.25 28.8125 C27.47882813 28.79413086 27.47882813 28.79413086 25.671875 28.77539062 C24.5271875 28.77345703 23.3825 28.77152344 22.203125 28.76953125 C21.15801758 28.76542236 20.11291016 28.76131348 19.03613281 28.75708008 C15.71940592 29.02245023 13.07251944 29.73378809 10 31 C8.98758315 32.32392972 7.98560611 33.65599167 7 35 C5.68 35 4.36 35 3 35 C3 34.34 3 33.68 3 33 C2.37351563 33.28875 1.74703125 33.5775 1.1015625 33.875 C0.28429687 34.24625 -0.53296875 34.6175 -1.375 35 C-2.18710938 35.37125 -2.99921875 35.7425 -3.8359375 36.125 C-6 37 -6 37 -8 37 C-8 37.66 -8 38.32 -8 39 C-9.32 39 -10.64 39 -12 39 C-12.165 39.61875 -12.33 40.2375 -12.5 40.875 C-14.90181375 44.27756949 -18.00162134 44.22612026 -22 45 C-21.505 42.03 -21.505 42.03 -21 39 C-20.34 39 -19.68 39 -19 39 C-19.2475 37.8553125 -19.2475 37.8553125 -19.5 36.6875 C-20 34 -20 34 -20 31 C-19.34 30.67 -18.68 30.34 -18 30 C-17.01 30.99 -16.02 31.98 -15 33 C-14.93425781 32.2265625 -14.86851562 31.453125 -14.80078125 30.65625 C-13.68322216 25.55363874 -11.46805561 21.17856472 -9.1875 16.5 C-8.74857422 15.57574219 -8.30964844 14.65148437 -7.85742188 13.69921875 C-5.53377902 8.87239451 -3.11683021 4.35920308 0 0 Z " fill="#B5B9E0" transform="translate(220,227)"/>
<path d="M0 0 C4.378755 4.01744319 7.44706951 8.60846041 10.42578125 13.69921875 C10.78494629 14.31015381 11.14411133 14.92108887 11.51416016 15.55053711 C12.4921875 17.3125 12.4921875 17.3125 13.86328125 20.38671875 C13.36828125 21.87171875 13.36828125 21.87171875 12.86328125 23.38671875 C9.42111453 20.72686265 8.86823451 17.48383589 7.86328125 13.38671875 C5.88328125 14.37671875 5.88328125 14.37671875 3.86328125 15.38671875 C3.86328125 12.38671875 3.86328125 12.38671875 4.86328125 9.38671875 C4.20328125 9.38671875 3.54328125 9.38671875 2.86328125 9.38671875 C1.23828125 7.38671875 1.23828125 7.38671875 -0.13671875 5.38671875 C-0.46671875 6.04671875 -0.79671875 6.70671875 -1.13671875 7.38671875 C-2.12671875 7.05671875 -3.11671875 6.72671875 -4.13671875 6.38671875 C-4.13671875 4.73671875 -4.13671875 3.08671875 -4.13671875 1.38671875 C-4.77480469 1.12117187 -5.41289062 0.855625 -6.0703125 0.58203125 C-6.89660156 0.22882813 -7.72289062 -0.124375 -8.57421875 -0.48828125 C-9.39792969 -0.83632812 -10.22164062 -1.184375 -11.0703125 -1.54296875 C-13.13671875 -2.61328125 -13.13671875 -2.61328125 -14.13671875 -4.61328125 C-21.80584695 -5.98276843 -29.85493915 -6.83081177 -37.13671875 -3.61328125 C-38.48072708 -2.62767514 -39.81278903 -1.6256981 -41.13671875 -0.61328125 C-42.44008107 0.05079977 -43.75375088 0.69483687 -45.07421875 1.32421875 C-47.73038094 2.6029288 -49.60877586 3.76436444 -51.94921875 5.63671875 C-54.13671875 7.38671875 -54.13671875 7.38671875 -57.13671875 7.38671875 C-54.23399442 0.70165665 -47.77353274 -3.88136554 -41.26171875 -6.83203125 C-27.20176119 -12.00113329 -11.91037409 -8.99265905 0 0 Z " fill="#B6E0F4" transform="translate(237.13671875,150.61328125)"/>
<path d="M0 0 C0.33 0 0.66 0 1 0 C1.58073692 5.57507441 0.57808458 8.23936111 -2.5625 12.81640625 C-5.51677749 17.30401798 -7.67761597 22.2633288 -10.01171875 27.09375 C-11.45469868 29.87704725 -13.23574084 32.4124199 -15 35 C-14.34 35.33 -13.68 35.66 -13 36 C-13.61875 36.2475 -14.2375 36.495 -14.875 36.75 C-17.47989072 38.28228866 -17.87328672 39.2207739 -19 42 C-21.66249647 48.25107867 -24.4812117 54.18634977 -28 60 C-28.30035156 60.62132812 -28.60070312 61.24265625 -28.91015625 61.8828125 C-30.0753511 64.14638099 -31.42355925 66.15932369 -32.875 68.25 C-34.91863579 71.25329932 -36.65399741 74.20800217 -38.1875 77.5 C-40 81 -40 81 -43 82 C-37.31951787 67.19797445 -29.21101494 52.28186474 -20.875 38.8125 C-17.97035441 34.11284871 -15.55469384 29.21263741 -13.11425781 24.26220703 C-10.69461688 19.36156585 -8.19728102 14.50978775 -5.625 9.6875 C-5.29129395 9.05948486 -4.95758789 8.43146973 -4.61376953 7.78442383 C-3.17445345 5.0978238 -1.69258607 2.53887911 0 0 Z " fill="#A9D6F2" transform="translate(179,158)"/>
<path d="M0 0 C0.66 0.33 1.32 0.66 2 1 C1.67 1.66 1.34 2.32 1 3 C0.34 2.67 -0.32 2.34 -1 2 C-1 4.97 -1 7.94 -1 11 C-1.66 11 -2.32 11 -3 11 C-3 11.66 -3 12.32 -3 13 C-3.66 13 -4.32 13 -5 13 C-5 13.66 -5 14.32 -5 15 C-17.57658685 21.75294565 -17.57658685 21.75294565 -24 22 C-25.27875 22.061875 -26.5575 22.12375 -27.875 22.1875 C-36.35121126 22.02418186 -42.84292447 19.43298768 -50 15 C-50 14.34 -50 13.68 -50 13 C-50.99 12.67 -51.98 12.34 -53 12 C-52.34 10.35 -51.68 8.7 -51 7 C-48.03 7.495 -48.03 7.495 -45 8 C-45.66 9.65 -46.32 11.3 -47 13 C-46.34 13 -45.68 13 -45 13 C-44.67 13.66 -44.34 14.32 -44 15 C-42.14255793 15.61067144 -42.14255793 15.61067144 -40 16 C-39.360625 16.185625 -38.72125 16.37125 -38.0625 16.5625 C-35.66684693 17.07066883 -33.44199733 17.06783326 -31 17 C-31 17.66 -31 18.32 -31 19 C-24.04339229 18.42978625 -17.68572695 16.98697306 -11 15 C-11 14.34 -11 13.68 -11 13 C-10.34 13 -9.68 13 -9 13 C-8.95875 12.319375 -8.9175 11.63875 -8.875 10.9375 C-7.63447322 6.7728744 -5.06437909 4.02373746 -2 1 C-1.34 0.67 -0.68 0.34 0 0 Z " fill="#B282DE" transform="translate(397,338)"/>
<path d="M0 0 C0 1.98 0 3.96 0 6 C-0.66 5.67 -1.32 5.34 -2 5 C-4.93031287 13.46534828 -3.78077077 21.5183089 -0.1875 29.6875 C1.62647993 33.17560941 1.62647993 33.17560941 4.625 33.875 C5.40875 33.91625 6.1925 33.9575 7 34 C9 36 9 36 9.125 39.125 C9.08375 40.07375 9.0425 41.0225 9 42 C5.91993185 41.67188277 4.36246825 41.34471471 2.0859375 39.1796875 C-4.0488379 30.91594894 -7.12601663 24.00237698 -7.1875 13.5625 C-7.20167969 12.47066406 -7.21585937 11.37882812 -7.23046875 10.25390625 C-6.98815447 6.83275716 -6.33290311 4.15515875 -5 1 C-3.1418061 0.21167531 -1.98218903 0 0 0 Z " fill="#7DBCED" transform="translate(103,310)"/>
<path d="M0 0 C-4.04092755 1.59975024 -7.63933715 0.32416279 -11.6875 -0.625 C-18.15813883 -2.00283704 -23.02604007 -2.3646441 -29 1 C-29.99 1.66 -30.98 2.32 -32 3 C-33.32 3 -34.64 3 -36 3 C-36.33 3.99 -36.66 4.98 -37 6 C-38.33198322 6.33868804 -39.66554486 6.67118641 -41 7 C-42.97173354 8.61054862 -42.97173354 8.61054862 -44.75 10.5625 C-45.36359375 11.20316406 -45.9771875 11.84382813 -46.609375 12.50390625 C-47.06828125 12.99761719 -47.5271875 13.49132812 -48 14 C-48.66 12.68 -49.32 11.36 -50 10 C-36.93934239 -3.75619559 -17.67226968 -10.30882398 0 0 Z " fill="#CEB2E5" transform="translate(309,146)"/>
<path d="M0 0 C0.99 0.33 1.98 0.66 3 1 C-0.74063086 11.45723324 -7.35563962 22.97645719 -16 30 C-16.66 30 -17.32 30 -18 30 C-18 30.66 -18 31.32 -18 32 C-18.66 31.67 -19.32 31.34 -20 31 C-20.25 28.75 -20.25 28.75 -20 26 C-18.12972515 23.75567018 -16.61113596 22.30556798 -14 21 C-13.87625 20.21625 -13.7525 19.4325 -13.625 18.625 C-13 16 -13 16 -10.9375 14.1875 C-10.298125 13.795625 -9.65875 13.40375 -9 13 C-8.67 13.33 -8.34 13.66 -8 14 C-7.67 13.34 -7.34 12.68 -7 12 C-6.34 12 -5.68 12 -5 12 C-5.0825 11.0925 -5.165 10.185 -5.25 9.25 C-5 6 -5 6 -3.0625 3.75 C-2.381875 3.1725 -1.70125 2.595 -1 2 C-0.67 1.34 -0.34 0.68 0 0 Z " fill="#708DD9" transform="translate(246,323)"/>
<path d="M0 0 C0.66 0.33 1.32 0.66 2 1 C-1.49746423 10.22226095 -5.94525659 18.80443013 -10.59765625 27.484375 C-11.39984176 28.98883542 -12.20065215 30.49402996 -13 32 C-13.39558105 32.74314453 -13.79116211 33.48628906 -14.19873047 34.25195312 C-16.39881267 38.40489605 -16.39881267 38.40489605 -17 43 C-18.65 43.66 -20.3 44.32 -22 45 C-21.505 42.03 -21.505 42.03 -21 39 C-20.34 39 -19.68 39 -19 39 C-19.2475 37.8553125 -19.2475 37.8553125 -19.5 36.6875 C-20 34 -20 34 -20 31 C-19.34 30.67 -18.68 30.34 -18 30 C-17.01 30.99 -16.02 31.98 -15 33 C-14.93425781 32.2265625 -14.86851562 31.453125 -14.80078125 30.65625 C-13.68322216 25.55363874 -11.46805561 21.17856472 -9.1875 16.5 C-8.74857422 15.57574219 -8.30964844 14.65148437 -7.85742188 13.69921875 C-5.53377902 8.87239451 -3.11683021 4.35920308 0 0 Z " fill="#BCDAF3" transform="translate(220,227)"/>
<path d="M0 0 C1.65 0 3.3 0 5 0 C5 1.32 5 2.64 5 4 C5.886875 4.268125 6.77375 4.53625 7.6875 4.8125 C11 6 11 6 13.375 7.5625 C16.92960068 9.50906704 19.97798118 9.59779812 24 10 C24.33 10.33 24.66 10.66 25 11 C27.01964199 11.07244053 29.04167124 11.08377188 31.0625 11.0625 C32.16722656 11.05347656 33.27195313 11.04445313 34.41015625 11.03515625 C35.69212891 11.01775391 35.69212891 11.01775391 37 11 C37.33 10.01 37.66 9.02 38 8 C41.3 8 44.6 8 48 8 C39.68081641 14.23938769 32.21121942 14.89756152 22 14 C18.84950108 13.2739772 15.96858608 12.26476184 13 11 C12.01 10.67 11.02 10.34 10 10 C10 9.34 10 8.68 10 8 C9.443125 7.938125 8.88625 7.87625 8.3125 7.8125 C4.51666774 6.47882921 1.78829587 3.57659173 0 0 Z " fill="#8B9FD9" transform="translate(178,347)"/>
<path d="M0 0 C1 3 1 3 0.328125 4.90234375 C-3.68085986 12.47002894 -3.68085986 12.47002894 -6 15 C-6.66 15 -7.32 15 -8 15 C-8 15.66 -8 16.32 -8 17 C-8.66 17 -9.32 17 -10 17 C-10 17.66 -10 18.32 -10 19 C-19.22551253 24.55580866 -19.22551253 24.55580866 -25 25 C-25 24.34 -25 23.68 -25 23 C-23.68 23 -22.36 23 -21 23 C-21 22.34 -21 21.68 -21 21 C-20.21625 20.7525 -19.4325 20.505 -18.625 20.25 C-15.55451513 18.78786435 -15.3550799 17.98117578 -14 15 C-12.68662604 13.9739266 -11.35335895 12.97272675 -10 12 C-9.34 11.01 -8.68 10.02 -8 9 C-7.01 9 -6.02 9 -5 9 C-4.67 7.35 -4.34 5.7 -4 4 C-3.34 4 -2.68 4 -2 4 C-2 3.34 -2 2.68 -2 2 C-1.34 2 -0.68 2 0 2 C0 1.34 0 0.68 0 0 Z " fill="#725DD8" transform="translate(329,334)"/>
<path d="M0 0 C2.34013344 0.64238957 4.67251306 1.31320058 7 2 C8.4166267 2.02339384 9.83467941 2.00266209 11.25 1.9375 C13.10625 1.9684375 13.10625 1.9684375 15 2 C15.42925781 2.49113281 15.85851562 2.98226562 16.30078125 3.48828125 C18.97046825 5.8633821 21.45303293 5.32312628 24.9375 5.25 C26.16339844 5.23453125 27.38929688 5.2190625 28.65234375 5.203125 C32.41373213 4.98589617 32.41373213 4.98589617 36 4 C36.33 3.34 36.66 2.68 37 2 C42.28 2 47.56 2 53 2 C44.24406302 6.37796849 35.39967498 7.28205374 25.75 7.3125 C24.50959961 7.32047607 24.50959961 7.32047607 23.24414062 7.32861328 C15.63499149 7.24207667 8.68441843 5.62052402 1.4375 3.375 C0.59058594 3.11460937 -0.25632813 2.85421875 -1.12890625 2.5859375 C-1.74636719 2.39257812 -2.36382812 2.19921875 -3 2 C-2.01 1.34 -1.02 0.68 0 0 Z " fill="#BBC2E9" transform="translate(224,233)"/>
<path d="M0 0 C0.99 0.33 1.98 0.66 3 1 C3.33 2.98 3.66 4.96 4 7 C4.66 7 5.32 7 6 7 C8.15305957 10.85756507 9.39253254 13.55129785 9 18 C9.99 18.33 10.98 18.66 12 19 C13.88579937 22.21284338 15 24.24633583 15 28 C15.99 28.33 16.98 28.66 18 29 C17.67 30.65 17.34 32.3 17 34 C18.485 34.495 18.485 34.495 20 35 C20 36.98 20 38.96 20 41 C17.13428649 37.51515086 15.21584791 33.65590323 13.25 29.625 C12.90437012 28.92616699 12.55874023 28.22733398 12.20263672 27.50732422 C10.78846906 24.64736216 9.38370386 21.78282931 7.97949219 18.91796875 C7.33392987 17.60257966 6.68685631 16.28793089 6.03808594 14.97412109 C5.17010823 13.2163502 4.3075599 11.45590139 3.4453125 9.6953125 C2.13765819 6.94498847 2.13765819 6.94498847 0 5 C-0.125 2.375 -0.125 2.375 0 0 Z " fill="#D2BBEA" transform="translate(280,228)"/>
<path d="M0 0 C0.33 0 0.66 0 1 0 C1.58117214 5.57925255 0.57674508 8.24587228 -2.5703125 12.82421875 C-4.11919862 15.18140336 -5.33672086 17.58588607 -6.5625 20.125 C-12.0265 31.22375 -12.0265 31.22375 -17 33 C-15.629435 28.3611646 -13.65372921 24.3813083 -11.1875 20.25 C-8.25965181 15.24875728 -5.52014892 10.21499514 -3.0078125 4.98828125 C-2 3 -2 3 0 0 Z " fill="#AFDAF2" transform="translate(179,158)"/>
<path d="M0 0 C2.7876033 2.7876033 4.12754339 4.81611184 5.91796875 8.25390625 C6.44970703 9.27291016 6.98144531 10.29191406 7.52929688 11.34179688 C8.07650391 12.40462891 8.62371094 13.46746094 9.1875 14.5625 C9.74630859 15.62919922 10.30511719 16.69589844 10.88085938 17.79492188 C15 25.73646406 15 25.73646406 15 28 C11.13317042 26.53327154 9.82827498 24.65654995 8 21 C7.67 19.948125 7.34 18.89625 7 17.8125 C6.21262767 14.70976172 6.21262767 14.70976172 3 13 C2.01 13.495 2.01 13.495 1 14 C0.67 9.38 0.34 4.76 0 0 Z " fill="#D3BAEA" transform="translate(321,157)"/>
<path d="M0 0 C3.38133995 3.1614154 4.77337801 5.50238605 6 10 C3.69 9.67 1.38 9.34 -1 9 C-1.556875 9.886875 -2.11375 10.77375 -2.6875 11.6875 C-4.77853792 14.84279378 -7.24566235 17.39868111 -10 20 C-7.88238204 12.4014885 -4.43347991 6.49838836 0 0 Z " fill="#6176C9" transform="translate(250,174)"/>
<path d="M0 0 C0 0.33 0 0.66 0 1 C-7.875 0.125 -7.875 0.125 -9 -1 C-14.38599935 -1.98926519 -19.72109984 -2.10450333 -25.1875 -2.125 C-26.22112671 -2.13188843 -26.22112671 -2.13188843 -27.27563477 -2.13891602 C-30.97608604 -2.12772017 -34.40243269 -1.88018152 -38 -1 C-27.09319198 -10.06410529 -11.56919139 -5.19433083 0 0 Z " fill="#BFE2F5" transform="translate(232,147)"/>
<path d="M0 0 C2 2 2 2 2 5 C0.72265625 6.6484375 0.72265625 6.6484375 -0.9375 8.375 C-3.57074129 11.30286968 -4.3973824 13.08298557 -5 17 C-6.2739589 19.03833424 -7.61061923 21.03852126 -9 23 C-11.41186657 26.53166176 -12.47945303 28.68492271 -12 33 C-11.67 33.33 -11.34 33.66 -11 34 C-10.95936168 35.66617115 -10.957279 37.33388095 -11 39 C-12.92554739 37.39028313 -13.90391154 36.48609455 -14.3984375 33.984375 C-14.34168533 28.57400165 -13.46493554 24.82716543 -11 20 C-10.34 20 -9.68 20 -9 20 C-8.62875 18.741875 -8.2575 17.48375 -7.875 16.1875 C-5.96808578 10.40227233 -3.03686412 5.25800098 0 0 Z " fill="#537BD0" transform="translate(185,298)"/>
<path d="M0 0 C0.99 0.33 1.98 0.66 3 1 C3.66 0.67 4.32 0.34 5 0 C5 0.99 5 1.98 5 3 C5.66 3.33 6.32 3.66 7 4 C7 6.64 7 9.28 7 12 C8.32 12 9.64 12 11 12 C11.99 12.33 12.98 12.66 14 13 C13.814375 13.61875 13.62875 14.2375 13.4375 14.875 C12.76313824 17.04160178 12.76313824 17.04160178 14 19 C13.34 19.66 12.68 20.32 12 21 C12 20.34 12 19.68 12 19 C11.01 19 10.02 19 9 19 C7.4933028 16.2118978 5.99580196 13.41896042 4.5 10.625 C4.07074219 9.8309375 3.64148438 9.036875 3.19921875 8.21875 C2.79316406 7.45820313 2.38710938 6.69765625 1.96875 5.9140625 C1.40317383 4.8614624 1.40317383 4.8614624 0.82617188 3.78759766 C0 2 0 2 0 0 Z " fill="#A76DE9" transform="translate(321,308)"/>
<path d="M0 0 C2.97 0.495 2.97 0.495 6 1 C5.34 2.65 4.68 4.3 4 6 C4.66 6 5.32 6 6 6 C6.33 6.66 6.66 7.32 7 8 C8.85744207 8.61067144 8.85744207 8.61067144 11 9 C11.639375 9.185625 12.27875 9.37125 12.9375 9.5625 C15.33315307 10.07066883 17.55800267 10.06783326 20 10 C20 10.66 20 11.32 20 12 C12.99943109 12.28573751 7.02215104 12.01476736 1 8 C1 7.34 1 6.68 1 6 C0.01 5.67 -0.98 5.34 -2 5 C-1.34 3.35 -0.68 1.7 0 0 Z " fill="#AD7FDD" transform="translate(346,345)"/>
<path d="M0 0 C0.99 0.33 1.98 0.66 3 1 C1.2653843 5.9278855 -1.35619901 10.27064575 -4 14.75 C-4.45117188 15.52988281 -4.90234375 16.30976563 -5.3671875 17.11328125 C-5.80289063 17.85449219 -6.23859375 18.59570312 -6.6875 19.359375 C-7.08324219 20.03452148 -7.47898438 20.70966797 -7.88671875 21.40527344 C-9 23 -9 23 -11 24 C-10.41196203 20.97580475 -9.77321882 17.98241547 -9 15 C-8.34 15 -7.68 15 -7 15 C-7 14.01 -7 13.02 -7 12 C-6.34 12 -5.68 12 -5 12 C-5.0825 11.0925 -5.165 10.185 -5.25 9.25 C-5 6 -5 6 -3.0625 3.75 C-2.381875 3.1725 -1.70125 2.595 -1 2 C-0.67 1.34 -0.34 0.68 0 0 Z " fill="#738FD4" transform="translate(246,323)"/>
<path d="M0 0 C-0.33 1.32 -0.66 2.64 -1 4 C-2.65 4.33 -4.3 4.66 -6 5 C-6 4.34 -6 3.68 -6 3 C-6.62648437 3.28875 -7.25296875 3.5775 -7.8984375 3.875 C-9.12433594 4.431875 -9.12433594 4.431875 -10.375 5 C-11.59316406 5.556875 -11.59316406 5.556875 -12.8359375 6.125 C-15 7 -15 7 -17 7 C-17 7.66 -17 8.32 -17 9 C-18.32 9 -19.64 9 -21 9 C-21.66 10.32 -22.32 11.64 -23 13 C-23.99 12.67 -24.98 12.34 -26 12 C-22.24671451 7.82888235 -18.65334343 5.48675431 -13.5625 3.1875 C-12.91990234 2.87619141 -12.27730469 2.56488281 -11.61523438 2.24414062 C-7.58287976 0.38147936 -4.4288507 -0.3491057 0 0 Z " fill="#A8B6DF" transform="translate(229,257)"/>
<path d="M0 0 C2.125 0.375 2.125 0.375 4 1 C3.195625 1.61875 2.39125 2.2375 1.5625 2.875 C-1.03874519 4.74164041 -1.03874519 4.74164041 -2 7 C-2 8.32 -2 9.64 -2 11 C-2.99 11.495 -2.99 11.495 -4 12 C-4.12375 12.804375 -4.2475 13.60875 -4.375 14.4375 C-4.58125 15.283125 -4.7875 16.12875 -5 17 C-6.32467746 17.6837045 -7.65863633 18.34964186 -9 19 C-9.70211894 20.65204456 -10.36971413 22.31923769 -11 24 C-11.99 24.66 -12.98 25.32 -14 26 C-12.42630562 20.45630391 -9.81416413 15.73509074 -7 10.75 C-6.54882812 9.9353125 -6.09765625 9.120625 -5.6328125 8.28125 C-2.2675047 2.2675047 -2.2675047 2.2675047 0 0 Z " fill="#5278CC" transform="translate(201,270)"/>
<path d="M0 0 C6.79261622 2.25074802 8.82379652 7.0823454 11.9375 13.0625 C12.44345703 13.98611328 12.94941406 14.90972656 13.47070312 15.86132812 C16.15611389 20.87678152 16.15611389 20.87678152 17 23 C16.67 23.66 16.34 24.32 16 25 C14.5 23.6875 14.5 23.6875 13 22 C13 21.01 13 20.02 13 19 C12.34 19 11.68 19 11 19 C11 17.68 11 16.36 11 15 C10.01 14.67 9.02 14.34 8 14 C8 12.68 8 11.36 8 10 C7.34 10 6.68 10 6 10 C4.375 8 4.375 8 3 6 C3.33 5.34 3.66 4.68 4 4 C1.03 3.505 1.03 3.505 -2 3 C-1.34 2.67 -0.68 2.34 0 2 C0 1.34 0 0.68 0 0 Z " fill="#6952CC" transform="translate(296,269)"/>
<path d="M0 0 C0.99 0 1.98 0 3 0 C3.08164159 2.6881249 3.14079668 5.373723 3.1875 8.0625 C3.22520508 9.19075195 3.22520508 9.19075195 3.26367188 10.34179688 C3.33282151 15.66631856 2.40669334 19.24346434 0 24 C-0.66 24 -1.32 24 -2 24 C-1.84402344 23.31035156 -1.68804687 22.62070312 -1.52734375 21.91015625 C-0.36973604 16.3214409 0.19270705 11.61156075 -0.80859375 5.97265625 C-1.02396391 3.75302506 -0.64956121 2.11937123 0 0 Z " fill="#B085DF" transform="translate(402,315)"/>
<path d="M0 0 C1.32 0.66 2.64 1.32 4 2 C3.67 3.32 3.34 4.64 3 6 C2.67 5.67 2.34 5.34 2 5 C-0.64 9.95 -3.28 14.9 -6 20 C-6.66 19.67 -7.32 19.34 -8 19 C-7.67 17.68 -7.34 16.36 -7 15 C-6.34 15 -5.68 15 -5 15 C-4.67 13.02 -4.34 11.04 -4 9 C-3.34 9 -2.68 9 -2 9 C-1.34 6.03 -0.68 3.06 0 0 Z " fill="#92C2EB" transform="translate(167,327)"/>
<path d="M0 0 C2.5 1.125 2.5 1.125 4 2 C0.01983965 3.5114533 -3.24880409 2.51533739 -7.3125 1.625 C-12.20659406 0.56601504 -17.03977869 -0.34548179 -22 -1 C-15.43439457 -4.91526929 -6.92259496 -2.02903646 0 0 Z " fill="#D8C4EB" transform="translate(305,144)"/>
<path d="M0 0 C0.7528125 0.0721875 1.505625 0.144375 2.28125 0.21875 C11.21289373 0.99918489 20.04524877 1.10345669 29 1 C25.52990834 4.47009166 20.84431158 3.95914621 16.125 4.1875 C10.34699409 4.10865781 4.83611452 3.22407635 0 0 Z " fill="#C0A1E1" transform="translate(353,356)"/>
<path d="M0 0 C0.58265625 0.0721875 1.1653125 0.144375 1.765625 0.21875 C8.53165166 0.98471528 15.19521851 1.10522858 22 1 C16.10745411 4.92836392 10.23714663 4.45433637 3.4375 3.5 C2.2309375 3.2525 2.2309375 3.2525 1 3 C0.67 2.01 0.34 1.02 0 0 Z " fill="#7AB5E6" transform="translate(120,356)"/>
<path d="M0 0 C5.00600922 0.54681024 8.97181067 2.24140333 13.375 4.5625 C14.01566406 4.89185547 14.65632813 5.22121094 15.31640625 5.56054688 C16.88138632 6.36639482 18.44124021 7.18218493 20 8 C20 8.99 20 9.98 20 11 C19.67 10.34 19.34 9.68 19 9 C16.65092125 8.31068656 16.65092125 8.31068656 13.9375 7.875 C13.01839844 7.70742188 12.09929687 7.53984375 11.15234375 7.3671875 C10.44207031 7.24601562 9.73179687 7.12484375 9 7 C9 6.34 9 5.68 9 5 C6.69 4.34 4.38 3.68 2 3 C2 2.34 2 1.68 2 1 C1.34 0.67 0.68 0.34 0 0 Z " fill="#AAA8DC" transform="translate(272,256)"/>
<path d="M0 0 C3.41916726 1.70958363 4.49254956 5.55818373 6.125 8.875 C6.49753906 9.60847656 6.87007813 10.34195313 7.25390625 11.09765625 C7.60582031 11.80535156 7.95773437 12.51304687 8.3203125 13.2421875 C8.64273926 13.8904248 8.96516602 14.53866211 9.29736328 15.20654297 C10 17 10 17 10 20 C9.38125 19.505 8.7625 19.01 8.125 18.5 C6.16119096 16.80777227 6.16119096 16.80777227 4 17 C4.33 16.01 4.66 15.02 5 14 C4.34 13.01 3.68 12.02 3 11 C2.835 10.13375 2.67 9.2675 2.5 8.375 C2.335 7.59125 2.17 6.8075 2 6 C1.34 5.67 0.68 5.34 0 5 C0 3.35 0 1.7 0 0 Z " fill="#CCAFE7" transform="translate(368,245)"/>
<path d="M0 0 C1.23758947 3.7127684 0.64736803 4.54617232 -1 8 C-2.49466961 10.57305192 -4.0737641 13.08037383 -5.66015625 15.59765625 C-6.89500782 17.81174872 -7.42766117 19.56376125 -8 22 C-8.66 22.99 -9.32 23.98 -10 25 C-10.99561083 22.390813 -11.10297218 21.27365747 -10.10375977 18.61816406 C-9.63768311 17.75932617 -9.17160645 16.90048828 -8.69140625 16.015625 C-8.19189453 15.08105469 -7.69238281 14.14648438 -7.17773438 13.18359375 C-6.64470703 12.21550781 -6.11167969 11.24742187 -5.5625 10.25 C-5.03333984 9.26644531 -4.50417969 8.28289062 -3.95898438 7.26953125 C-2.65002535 4.84029198 -1.33011531 2.41770066 0 0 Z " fill="#7999DD" transform="translate(239,194)"/>
<path d="M0 0 C0.66 0.99 1.32 1.98 2 3 C-5.29840547 17.78132118 -5.29840547 17.78132118 -9 24 C-10 21 -10 21 -8.671875 17.890625 C-8.04121244 16.67187626 -7.40012969 15.45847637 -6.75 14.25 C-6.11775091 13.04794618 -5.48753712 11.84481961 -4.859375 10.640625 C-4.54935547 10.04701172 -4.23933594 9.45339844 -3.91992188 8.84179688 C-2.47533509 5.94955625 -1.23995256 2.98507098 0 0 Z " fill="#68ADF4" transform="translate(188,287)"/>
<path d="M0 0 C2.72168665 3.17530109 4.85559053 5.94254825 6 10 C5.51612903 13.48387097 5.51612903 13.48387097 4 15 C2.00041636 15.04080783 -0.00045254 15.04254356 -2 15 C-0.33333333 13.33333333 1.33333333 11.66666667 3 10 C3 9.34 3 8.68 3 8 C2.34 8 1.68 8 1 8 C1 6.35 1 4.7 1 3 C0.34 2.67 -0.32 2.34 -1 2 C-0.67 1.34 -0.34 0.68 0 0 Z " fill="#A19EDA" transform="translate(275,220)"/>
<path d="M0 0 C3 1 3 1 4.203125 3.14453125 C4.54859375 4.02496094 4.8940625 4.90539062 5.25 5.8125 C5.60578125 6.68519531 5.9615625 7.55789063 6.328125 8.45703125 C7.03604136 11.13641236 6.9337741 12.43212123 6 15 C2.47086025 9.98627748 0.38528505 6.16456078 0 0 Z " fill="#87BDE8" transform="translate(97,331)"/>
<path d="M0 0 C5.28 0 10.56 0 16 0 C8.85726639 3.5713668 2.84799723 4.2842333 -5 4 C-4.360625 3.71125 -3.72125 3.4225 -3.0625 3.125 C-0.84793921 2.17176549 -0.84793921 2.17176549 0 0 Z " fill="#B6B6E5" transform="translate(261,235)"/>
<path d="M0 0 C2 2 2 2 2.125 5.9375 C2.08955922 7.29184391 2.04825952 8.64605226 2 10 C2 10.99 2 11.98 2 13 C0.35 13.66 -1.3 14.32 -3 15 C-2.67 13.02 -2.34 11.04 -2 9 C-1.34 9 -0.68 9 0 9 C-0.2475 7.8553125 -0.2475 7.8553125 -0.5 6.6875 C-1 4 -1 4 -1 1 C-0.67 0.67 -0.34 0.34 0 0 Z " fill="#A9D0F3" transform="translate(201,257)"/>
<path d="M0 0 C0.99 0.33 1.98 0.66 3 1 C3 1.99 3 2.98 3 4 C3.66 4 4.32 4 5 4 C5.26554687 4.75925781 5.53109375 5.51851562 5.8046875 6.30078125 C6.15789062 7.29464844 6.51109375 8.28851563 6.875 9.3125 C7.22304688 10.29863281 7.57109375 11.28476563 7.9296875 12.30078125 C8.95305924 15.15594377 8.95305924 15.15594377 11 18 C10.67 18.99 10.34 19.98 10 21 C8.32666842 17.87852455 6.66248284 14.75226502 5 11.625 C4.52304687 10.73554688 4.04609375 9.84609375 3.5546875 8.9296875 C3.10351562 8.07890625 2.65234375 7.228125 2.1875 6.3515625 C1.76855469 5.56604004 1.34960938 4.78051758 0.91796875 3.97119141 C0 2 0 2 0 0 Z " fill="#B495EF" transform="translate(256,182)"/>
<path d="M0 0 C0.99 0 1.98 0 3 0 C3 0.66 3 1.32 3 2 C3.556875 2.20625 4.11375 2.4125 4.6875 2.625 C7.92501302 4.55000774 9.68231141 7.03850902 12 10 C10.68 10.33 9.36 10.66 8 11 C7.87625 10.071875 7.87625 10.071875 7.75 9.125 C7.19416524 6.83911206 7.19416524 6.83911206 5.0625 5.8125 C4.381875 5.544375 3.70125 5.27625 3 5 C2.34 4.67 1.68 4.34 1 4 C0.375 1.9375 0.375 1.9375 0 0 Z " fill="#D3B9EA" transform="translate(309,147)"/>
<path d="M0 0 C2.29158942 2.89818662 4.07862366 5.83140544 5.75 9.125 C6.19859375 9.99382812 6.6471875 10.86265625 7.109375 11.7578125 C7.40328125 12.49773437 7.6971875 13.23765625 8 14 C7.67 14.66 7.34 15.32 7 16 C6.34 15.67 5.68 15.34 5 15 C5 14.34 5 13.68 5 13 C4.34 13 3.68 13 3 13 C2.49242138 11.58603098 1.99425075 10.16868271 1.5 8.75 C1.08234375 7.56664062 1.08234375 7.56664062 0.65625 6.359375 C0 4 0 4 0 0 Z " fill="#7472CE" transform="translate(256,184)"/>
<path d="M0 0 C0.66 0.33 1.32 0.66 2 1 C1.44449305 4.59905908 0.25112752 5.99909799 -2.5625 8.25 C-3.20316406 8.77078125 -3.84382813 9.2915625 -4.50390625 9.828125 C-4.99761719 10.21484375 -5.49132812 10.6015625 -6 11 C-6.71484375 9.234375 -6.71484375 9.234375 -7 7 C-5.56640625 5.078125 -5.56640625 5.078125 -3.5625 3.25 C-2.90378906 2.63640625 -2.24507813 2.0228125 -1.56640625 1.390625 C-1.04949219 0.93171875 -0.53257812 0.4728125 0 0 Z " fill="#D1B7EB" transform="translate(266,149)"/>
<path d="M0 0 C1.43836751 0.11458693 2.87570966 0.24209116 4.3125 0.375 C5.51326172 0.47941406 5.51326172 0.47941406 6.73828125 0.5859375 C9 1 9 1 12 3 C13.33333333 8.33333333 13.33333333 8.33333333 12 11 C11.01 10.67 10.02 10.34 9 10 C9 8.35 9 6.7 9 5 C4.545 3.02 4.545 3.02 0 1 C0 0.67 0 0.34 0 0 Z " fill="#A1D5F5" transform="translate(224,147)"/>
<path d="M0 0 C3.1913079 1.59565395 4.11784709 4.84661121 5.625 7.9375 C5.94984375 8.58396484 6.2746875 9.23042969 6.609375 9.89648438 C9 14.73297991 9 14.73297991 9 17 C8.01 17 7.02 17 6 17 C5.67 14.69 5.34 12.38 5 10 C4.34 10 3.68 10 3 10 C0.96564469 6.27034861 0 4.33094958 0 0 Z " fill="#CFB1E6" transform="translate(351,213)"/>
<path d="M0 0 C0 0.33 0 0.66 0 1 C-0.9075 1.268125 -1.815 1.53625 -2.75 1.8125 C-5.76607494 2.91452738 -7.53256294 4.02605035 -10 6 C-12.0625 7.25 -12.0625 7.25 -14 8 C-14.99 7.67 -15.98 7.34 -17 7 C-16.34 7 -15.68 7 -15 7 C-15 6.01 -15 5.02 -15 4 C-14.01 4 -13.02 4 -12 4 C-12 3.34 -12 2.68 -12 2 C-7.8794254 0.00214565 -4.54805635 -0.17835515 0 0 Z " fill="#9ED2F2" transform="translate(206,144)"/>
<path d="M0 0 C0.99 0.99 1.98 1.98 3 3 C0.36113346 7.2026393 -2.36440339 10.56638098 -6 14 C-4.45941767 8.98491285 -2.97068161 4.3852919 0 0 Z " fill="#6B85D3" transform="translate(246,180)"/>
<path d="M0 0 C1 3 1 3 0 6 C-0.66 6 -1.32 6 -2 6 C-2 6.66 -2 7.32 -2 8 C-3.32 8 -4.64 8 -6 8 C-6.33 5.69 -6.66 3.38 -7 1 C-6.34 1 -5.68 1 -5 1 C-4.67 1.66 -4.34 2.32 -4 3 C-2.68 2.67 -1.36 2.34 0 2 C0 1.34 0 0.68 0 0 Z " fill="#6FB3EA" transform="translate(159,343)"/>
<path d="M0 0 C2.97 0.495 2.97 0.495 6 1 C6 1.66 6 2.32 6 3 C8.97 3.495 8.97 3.495 12 4 C10.375 5.625 10.375 5.625 8 7 C4.875 6.5 4.875 6.5 2 5 C0.625 2.375 0.625 2.375 0 0 Z " fill="#7D6ADC" transform="translate(275,352)"/>
<path d="M0 0 C0.33 0.66 0.66 1.32 1 2 C-0.43359375 4.6015625 -0.43359375 4.6015625 -2.4375 7.625 C-3.42556641 9.12933594 -3.42556641 9.12933594 -4.43359375 10.6640625 C-4.95050781 11.43492187 -5.46742188 12.20578125 -6 13 C-7.13583456 9.28272326 -6.66670026 7.52948291 -5 4 C-4.34 4 -3.68 4 -3 4 C-3 3.01 -3 2.02 -3 1 C-2.01 0.67 -1.02 0.34 0 0 Z " fill="#9AACE0" transform="translate(242,334)"/>
<path d="M0 0 C3 1 3 1 4.25 2.75 C5.17574966 5.52724898 4.77341204 7.21571665 4 10 C2 8.9375 2 8.9375 0 7 C-0.25 3.3125 -0.25 3.3125 0 0 Z " fill="#BF96E3" transform="translate(363,238)"/>
<path d="M0 0 C2.2477975 2.05233685 3.0022242 3.00667261 4 6 C4.66 6.33 5.32 6.66 6 7 C7.3749149 9.90259811 8 11.76138705 8 15 C8.66 15 9.32 15 10 15 C10 15.66 10 16.32 10 17 C7 16 7 16 5.17578125 12.91015625 C4.54434632 11.6326637 3.92363056 10.3498293 3.3125 9.0625 C2.99216797 8.41603516 2.67183594 7.76957031 2.34179688 7.10351562 C0 2.29509262 0 2.29509262 0 0 Z " fill="#A578ED" transform="translate(302,271)"/>
<path d="M0 0 C1.98 0 3.96 0 6 0 C6 0.66 6 1.32 6 2 C6.99 2.33 7.98 2.66 9 3 C9 5.31 9 7.62 9 10 C8 9 7 8 6 7 C5.278125 6.319375 4.55625 5.63875 3.8125 4.9375 C2 3 2 3 2 1 C1.34 0.67 0.68 0.34 0 0 Z " fill="#9E97E6" transform="translate(247,321)"/>
<path d="M0 0 C0.66 0.33 1.32 0.66 2 1 C1.67 1.66 1.34 2.32 1 3 C0.34 2.67 -0.32 2.34 -1 2 C-1 3.98 -1 5.96 -1 8 C-2.65 7.67 -4.3 7.34 -6 7 C-2.25 1.125 -2.25 1.125 0 0 Z M-7 7 C-6.67 7.66 -6.34 8.32 -6 9 C-6.33 9.66 -6.66 10.32 -7 11 C-7.66 10.67 -8.32 10.34 -9 10 C-8.34 9.01 -7.68 8.02 -7 7 Z " fill="#B06DE6" transform="translate(397,338)"/>
<path d="M0 0 C0.66 0.66 1.32 1.32 2 2 C1.01 5.3 0.02 8.6 -1 12 C-1.33 10.68 -1.66 9.36 -2 8 C-2.66 8 -3.32 8 -4 8 C-3.50168276 4.31245243 -2.89932357 2.39509338 0 0 Z " fill="#6586DD" transform="translate(236,336)"/>
<path d="M0 0 C2.34917898 2.15341406 3.82443004 4.21667937 5.25 7.0625 C5.60578125 7.75472656 5.9615625 8.44695312 6.328125 9.16015625 C6.54984375 9.76730469 6.7715625 10.37445313 7 11 C6.67 11.66 6.34 12.32 6 13 C2.50580046 10.78700696 1.1377194 8.98201791 0 5 C-0.125 2.1875 -0.125 2.1875 0 0 Z " fill="#CFAFEA" transform="translate(382,271)"/>
<path d="M0 0 C7.57142857 1.85714286 7.57142857 1.85714286 10 5 C6.18510326 6.46726798 3.70988378 5.43336419 0 4 C0 2.68 0 1.36 0 0 Z " fill="#877BD7" transform="translate(289,265)"/>
<path d="M0 0 C1 2 1 2 0.36328125 4.09375 C0.01652344 4.8878125 -0.33023437 5.681875 -0.6875 6.5 C-1.02136719 7.2940625 -1.35523438 8.088125 -1.69921875 8.90625 C-3.19558554 11.31481637 -4.3924752 11.98992724 -7 13 C-5.35821735 8.22390502 -2.73453298 4.20617096 0 0 Z " fill="#DDC5EE" transform="translate(258,158)"/>
<path d="M0 0 C1.32 0.66 2.64 1.32 4 2 C2.68 2.33 1.36 2.66 0 3 C0 3.66 0 4.32 0 5 C-2.64 5 -5.28 5 -8 5 C-6.8125 3.5 -6.8125 3.5 -5 2 C-2.3125 1.8125 -2.3125 1.8125 0 2 C0 1.34 0 0.68 0 0 Z " fill="#624ADA" transform="translate(304,354)"/>
<path d="M0 0 C0.66 0.33 1.32 0.66 2 1 C0.02 4.63 -1.96 8.26 -4 12 C-4.33 12 -4.66 12 -5 12 C-5 9.69 -5 7.38 -5 5 C-4.01 4.67 -3.02 4.34 -2 4 C-0.79117904 1.99983534 -0.79117904 1.99983534 0 0 Z " fill="#93C6FB" transform="translate(237,195)"/>
<path d="M0 0 C0.33 0.66 0.66 1.32 1 2 C-0.21484375 4.6015625 -0.21484375 4.6015625 -1.9375 7.625 C-2.78634766 9.12933594 -2.78634766 9.12933594 -3.65234375 10.6640625 C-4.09707031 11.43492187 -4.54179687 12.20578125 -5 13 C-5.33 13 -5.66 13 -6 13 C-6.22022035 9.14614384 -5.8068366 6.43298954 -4 3 C-1.875 1.1875 -1.875 1.1875 0 0 Z " fill="#94C8FB" transform="translate(247,176)"/>
<path d="M0 0 C-1.12451727 2.9719385 -2.22293791 5.33440687 -4 8 C-4.66 8 -5.32 8 -6 8 C-6 5.69 -6 3.38 -6 1 C-3 0 -3 0 0 0 Z " fill="#C199E6" transform="translate(402,339)"/>
<path d="M0 0 C-2.85378689 1.55720335 -5.4413266 2.42895964 -8.625 3.0625 C-10.98190335 3.53622974 -12.84656316 3.92328158 -15 5 C-15.99 4.34 -16.98 3.68 -18 3 C-16.12743583 2.49095343 -14.25180659 1.99317545 -12.375 1.5 C-11.33085937 1.2215625 -10.28671875 0.943125 -9.2109375 0.65625 C-6.04312582 0.00881404 -3.22258533 -0.1161292 0 0 Z M-17 5 C-15 6 -15 6 -15 6 Z " fill="#C8CEEE" transform="translate(244,253)"/>
<path d="M0 0 C3 1 3 1 4.6875 3.9375 C6 7 6 7 6 9 C2.19333016 7.55609075 0.73397418 5.65047197 -1 2 C-0.67 1.34 -0.34 0.68 0 0 Z " fill="#C9AAE3" transform="translate(330,176)"/>
<path d="M0 0 C1 3 1 3 0.29296875 5.0078125 C-0.25423828 6.05582031 -0.25423828 6.05582031 -0.8125 7.125 C-1.16957031 7.82882812 -1.52664063 8.53265625 -1.89453125 9.2578125 C-3 11 -3 11 -5 12 C-4.67 9.36 -4.34 6.72 -4 4 C-3.34 4 -2.68 4 -2 4 C-2 3.34 -2 2.68 -2 2 C-1.34 2 -0.68 2 0 2 C0 1.34 0 0.68 0 0 Z " fill="#A296E1" transform="translate(329,334)"/>
<path d="M0 0 C2.86453858 3.41016497 4.34703566 6.90694544 6 11 C5.01 11.66 4.02 12.32 3 13 C3 11.68 3 10.36 3 9 C2.34 9 1.68 9 1 9 C0.67 6.03 0.34 3.06 0 0 Z " fill="#6447D5" transform="translate(321,310)"/>
<path d="M0 0 C3.04105488 1.52052744 4.71466648 2.48121179 6.375 5.5 C7 8 7 8 6 11 C6 10.34 6 9.68 6 9 C5.01 9.33 4.02 9.66 3 10 C1.87119943 6.68885166 0.78697325 3.41021743 0 0 Z " fill="#B27CDF" transform="translate(384,281)"/>
<path d="M0 0 C2.78712092 1.39356046 3.26463329 3.16505673 4.625 5.9375 C5.07101562 6.83339844 5.51703125 7.72929687 5.9765625 8.65234375 C7 11 7 11 7 13 C6.01 12.67 5.02 12.34 4 12 C3.29618843 10.01276732 2.6288189 8.01222047 2 6 C1.34 5.67 0.68 5.34 0 5 C0 3.35 0 1.7 0 0 Z " fill="#D6BFEC" transform="translate(336,185)"/>
<path d="M0 0 C1.98 0.495 1.98 0.495 4 1 C4.125 4.375 4.125 4.375 4 8 C3.34 8.66 2.68 9.32 2 10 C-1.07692308 4.58461538 -1.07692308 4.58461538 -0.6875 1.625 C-0.460625 1.08875 -0.23375 0.5525 0 0 Z " fill="#899FDE" transform="translate(172,333)"/>
<path d="M0 0 C0.66 0 1.32 0 2 0 C2 0.99 2 1.98 2 3 C2.66 3 3.32 3 4 3 C5.66666667 6.33333333 7.33333333 9.66666667 9 13 C8.01 13 7.02 13 6 13 C4.99491199 11.21118264 3.99607264 9.41885304 3 7.625 C2.1646875 6.12839844 2.1646875 6.12839844 1.3125 4.6015625 C0 2 0 2 0 0 Z " fill="#BF9EF2" transform="translate(267,203)"/>
<path d="M0 0 C2.89932357 2.39509338 3.50168276 4.31245243 4 8 C2.02 8.99 2.02 8.99 0 10 C-1.6415049 6.7169902 -0.51888624 3.57454967 0 0 Z " fill="#807ED5" transform="translate(266,204)"/>
<path d="M0 0 C1.1875 1.6875 1.1875 1.6875 2 4 C0.70007475 7.03315891 -0.34449751 8.60669851 -3.1875 10.3125 C-4.0846875 10.6528125 -4.0846875 10.6528125 -5 11 C-3.77472971 6.94718288 -2.30119506 3.55639236 0 0 Z " fill="#B9DFF5" transform="translate(167,180)"/>
<path d="M0 0 C3.09592835 3.5087188 4.74194623 6.49197399 6 11 C5.01 11 4.02 11 3 11 C0 4.5 0 4.5 0 0 Z " fill="#C1E3F7" transform="translate(245,162)"/>
<path d="M0 0 C3.1875 -0.3125 3.1875 -0.3125 6 0 C5.01 0.495 5.01 0.495 4 1 C3.34786708 3.02463255 3.34786708 3.02463255 3 5 C1.02 5 -0.96 5 -3 5 C-1.875 2.5 -1.875 2.5 0 0 Z " fill="#C3A3E3" transform="translate(269,147)"/>
<path d="M0 0 C0.66 0.33 1.32 0.66 2 1 C2 1.66 2 2.32 2 3 C1.34 3 0.68 3 0 3 C0 3.66 0 4.32 0 5 C-1.96147874 6.38938077 -3.96166576 7.7260411 -6 9 C-6.66 8.67 -7.32 8.34 -8 8 C-7.67 7.34 -7.34 6.68 -7 6 C-6.01 6 -5.02 6 -4 6 C-4 5.01 -4 4.02 -4 3 C-3.01 3 -2.02 3 -1 3 C-0.67 2.01 -0.34 1.02 0 0 Z " fill="#9E8FDE" transform="translate(319,348)"/>
<path d="M0 0 C2.97 0.495 2.97 0.495 6 1 C5.34 2.98 4.68 4.96 4 7 C3.34 7 2.68 7 2 7 C2 6.34 2 5.68 2 5 C0.68 4.34 -0.64 3.68 -2 3 C-1.34 2.01 -0.68 1.02 0 0 Z " fill="#A96EE0" transform="translate(346,345)"/>
<path d="M0 0 C0.6875 1.8125 0.6875 1.8125 1 4 C-0.3125 5.4375 -0.3125 5.4375 -2 7 C-3.19027984 9.59915538 -3.19027984 9.59915538 -4 12 C-4.33 12 -4.66 12 -5 12 C-5 9.69 -5 7.38 -5 5 C-3.68 4.67 -2.36 4.34 -1 4 C-0.67 2.68 -0.34 1.36 0 0 Z " fill="#96CBF0" transform="translate(154,208)"/>
<path d="M0 0 C1.35439668 2.70879335 1.06501451 5.00933268 1 8 C-0.98 8.99 -2.96 9.98 -5 11 C-3.77472971 6.94718288 -2.30119506 3.55639236 0 0 Z " fill="#9DD2F3" transform="translate(105,296)"/>
<path d="M0 0 C3 3.75 3 3.75 3 6 C0.03 5.505 0.03 5.505 -3 5 C-3.33 4.01 -3.66 3.02 -4 2 C-2.68 1.34 -1.36 0.68 0 0 Z " fill="#6C71CE" transform="translate(253,178)"/>
<path d="M0 0 C0.33 0 0.66 0 1 0 C0.67 2.31 0.34 4.62 0 7 C-0.66 7 -1.32 7 -2 7 C-2.33 8.65 -2.66 10.3 -3 12 C-3.66 12 -4.32 12 -5 12 C-3.68938409 7.76570244 -2.05643741 3.92592596 0 0 Z " fill="#A6D3F3" transform="translate(135,240)"/>
<path d="M0 0 C0.66 0.66 1.32 1.32 2 2 C1.67 2.66 1.34 3.32 1 4 C1.99 4.33 2.98 4.66 4 5 C5.6875 7.5625 5.6875 7.5625 7 10 C5 9 3 8 1 7 C1 6.34 1 5.68 1 5 C0.34 5 -0.32 5 -1 5 C-0.67 3.35 -0.34 1.7 0 0 Z " fill="#9C8DE3" transform="translate(267,344)"/>
<path d="M0 0 C1 2 1 2 0.3125 4.5 C-1.15567038 7.29651501 -2.09303901 7.93411431 -5 9 C-5 7.68 -5 6.36 -5 5 C-4.34 5 -3.68 5 -3 5 C-2.5359375 4.0409375 -2.5359375 4.0409375 -2.0625 3.0625 C-1 1 -1 1 0 0 Z " fill="#6BBBF4" transform="translate(124,267)"/>
<path d="M0 0 C-0.66 1.32 -1.32 2.64 -2 4 C-3.32 4 -4.64 4 -6 4 C-6.33 3.01 -6.66 2.02 -7 1 C-3.375 -1.125 -3.375 -1.125 0 0 Z " fill="#8792D7" transform="translate(229,258)"/>
<path d="M0 0 C2.97 0 5.94 0 9 0 C8.67 0.99 8.34 1.98 8 3 C5.36 3 2.72 3 0 3 C0 2.01 0 1.02 0 0 Z " fill="#5DAAEB" transform="translate(140,353)"/>
<path d="M0 0 C3.0916909 2.52956528 3.90931332 5.22454612 5 9 C3.0625 8.4375 3.0625 8.4375 1 7 C0.25 3.375 0.25 3.375 0 0 Z " fill="#6649D2" transform="translate(313,295)"/>
<path d="M0 0 C1 3 1 3 0.3125 5.4375 C-1.10279146 8.20068809 -2.70408875 9.93367987 -5 12 C-4.42365861 7.24518354 -2.44931479 4.02951788 0 0 Z " fill="#6F8FD9" transform="translate(239,194)"/>
<path d="M0 0 C2.97 0.495 2.97 0.495 6 1 C6.33 2.32 6.66 3.64 7 5 C6.01 5.33 5.02 5.66 4 6 C2.62437146 4.71034824 1.29233607 3.37310707 0 2 C0 1.34 0 0.68 0 0 Z " fill="#BD94E6" transform="translate(339,343)"/>
<path d="M0 0 C0.66 0 1.32 0 2 0 C1.649375 0.5775 1.29875 1.155 0.9375 1.75 C-0.14917407 4.35801776 0.06934867 5.39417629 1 8 C0.01 8 -0.98 8 -2 8 C-3 5 -3 5 -2 2 C-1.34 2 -0.68 2 0 2 C0 1.34 0 0.68 0 0 Z " fill="#A46AE1" transform="translate(342,336)"/>
<path d="M0 0 C0 1.98 0 3.96 0 6 C-0.66 5.67 -1.32 5.34 -2 5 C-2.66 5.99 -3.32 6.98 -4 8 C-4 5.69 -4 3.38 -4 1 C-1 0 -1 0 0 0 Z " fill="#5BB2F5" transform="translate(103,310)"/>
<path d="M0 0 C2.3129482 2.3129482 2.49580975 3.47904875 3.125 6.625 C3.29257812 7.44226563 3.46015625 8.25953125 3.6328125 9.1015625 C3.81457031 10.04128906 3.81457031 10.04128906 4 11 C-0.62452592 5.62958281 -0.62452592 5.62958281 -1 2 C-0.67 1.34 -0.34 0.68 0 0 Z " fill="#C3AAF1" transform="translate(276,216)"/>
<path d="M0 0 C0.66 0.33 1.32 0.66 2 1 C1.67 2.65 1.34 4.3 1 6 C1.66 6 2.32 6 3 6 C2.67 7.32 2.34 8.64 2 10 C0.02 6.535 0.02 6.535 -2 3 C-1.34 2.01 -0.68 1.02 0 0 Z " fill="#B7A0E9" transform="translate(252,170)"/>
<path d="M0 0 C1.32 0.33 2.64 0.66 4 1 C3.34 2.98 2.68 4.96 2 7 C1.34 6.67 0.68 6.34 0 6 C0 4.02 0 2.04 0 0 Z " fill="#B282E0" transform="translate(337,336)"/>
<path d="M0 0 C2.64465038 3.1254959 3.84414715 6.08788267 5 10 C2 9 2 9 0 6 C-0.125 2.8125 -0.125 2.8125 0 0 Z " fill="#CDAFEA" transform="translate(393,291)"/>
<path d="M0 0 C3.6875 0.875 3.6875 0.875 7 2 C6.67 2.66 6.34 3.32 6 4 C1.545 3.01 1.545 3.01 -3 2 C-2.01 1.34 -1.02 0.68 0 0 Z " fill="#C0C7ED" transform="translate(224,233)"/>
<path d="M0 0 C3.93846154 4.30769231 3.93846154 4.30769231 4.25 7.8125 C4.1675 8.534375 4.085 9.25625 4 10 C3.67 9.34 3.34 8.68 3 8 C2.34 8 1.68 8 1 8 C1 6.35 1 4.7 1 3 C0.34 2.67 -0.32 2.34 -1 2 C-0.67 1.34 -0.34 0.68 0 0 Z " fill="#9790DB" transform="translate(275,220)"/>
<path d="M0 0 C0.99 0.33 1.98 0.66 3 1 C3.33 1.99 3.66 2.98 4 4 C3 5 3 5 0.4375 5.0625 C-0.7690625 5.0315625 -0.7690625 5.0315625 -2 5 C-1.34 3.35 -0.68 1.7 0 0 Z " fill="#5D7DDC" transform="translate(212,354)"/>
<path d="M0 0 C0.99 0.33 1.98 0.66 3 1 C1.92598892 3.91517292 1.22189824 5.77810176 -1 8 C-1.625 5.6875 -1.625 5.6875 -2 3 C-1.34 2.01 -0.68 1.02 0 0 Z " fill="#9DAFE8" transform="translate(246,323)"/>
<path d="M0 0 C0.66 0 1.32 0 2 0 C2 0.66 2 1.32 2 2 C2.99 2.33 3.98 2.66 5 3 C5 4.98 5 6.96 5 9 C2.67527795 6.14693203 1.2491742 3.45925163 0 0 Z " fill="#D8BCED" transform="translate(295,260)"/>
<path d="M0 0 C2 2 2 2 2.1953125 3.9453125 C2.13020833 5.96354167 2.06510417 7.98177083 2 10 C0.22293791 7.33440687 -0.87548273 4.9719385 -2 2 C-1.34 1.34 -0.68 0.68 0 0 Z " fill="#99CEF4" transform="translate(201,257)"/>
<path d="M0 0 C-2.62198774 2.15377564 -4.64404172 3.40072174 -8 4 C-8.33 3.34 -8.66 2.68 -9 2 C-5.86501708 0.14223235 -3.62528568 -0.20140476 0 0 Z " fill="#98A8DF" transform="translate(226,355)"/>
<path d="M0 0 C0.5534764 2.07553648 1 3.84365964 1 6 C-2.16115776 4.63016497 -2.9927092 4.0109362 -5 1 C-2.525 1.495 -2.525 1.495 0 2 C0 1.34 0 0.68 0 0 Z " fill="#66ADE5" transform="translate(111,346)"/>
<path d="M0 0 C0.66 0.33 1.32 0.66 2 1 C1.67 2.98 1.34 4.96 1 7 C0.01 7 -0.98 7 -2 7 C-1.34 4.69 -0.68 2.38 0 0 Z " fill="#7765D4" transform="translate(322,342)"/>
<path d="M0 0 C1.485 0.99 1.485 0.99 3 2 C2.34 2 1.68 2 1 2 C1.515625 2.94875 2.03125 3.8975 2.5625 4.875 C3.036875 5.90625 3.51125 6.9375 4 8 C3.67 8.66 3.34 9.32 3 10 C-0.22265625 4.82421875 -0.22265625 4.82421875 -1 3 C-0.67 2.01 -0.34 1.02 0 0 Z " fill="#A570ED" transform="translate(316,295)"/>
<path d="M0 0 C1 2 1 2 0.25 5.0625 C-0.1625 6.031875 -0.575 7.00125 -1 8 C-1.99 8.33 -2.98 8.66 -4 9 C-2.94124926 5.59687262 -1.99097846 2.98646769 0 0 Z " fill="#B1D9F4" transform="translate(129,252)"/>
</svg>
